0
SECTION
2
HEADER
9
$INSUNITS
70
4
9
$ACADVER
1
AC1014
9
$HANDSEED
5
FFFF
0
ENDSEC
0
SECTION
2
TABLES
0
TABLE
2
VPORT
5
8
100
AcDbSymbolTable
0
ENDTAB
0
TABLE
2
LTYPE
5
5
100
AcDbSymbolTable
0
LTYPE
5
14
100
AcDbSymbolTableRecord
100
AcDbLinetypeTableRecord
2
BYBLOCK
70
0
0
LTYPE
5
15
100
AcDbSymbolTableRecord
100
AcDbLinetypeTableRecord
2
BYLAYER
70
0
0
LTYPE
5
16
100
AcDbSymbolTableRecord
100
AcDbLinetypeTableRecord
2
DASHED
70
0
3
Dashed __ __ __ __ __ __ __ __ __ __ __ __ __ _
72
65
73
2
40
0.75
49
0.5
74
0
49
-0.25
74
0
0
ENDTAB
0
TABLE
2
LAYER
5
2
100
AcDbSymbolTable
70
2
0
LAYER
5
50
100
AcDbSymbolTableRecord
100
AcDbLayerTableRecord
2
0
70
0
62
7
6
CONTINUOUS
0
ENDTAB
0
TABLE
2
STYLE
5
3
100
AcDbSymbolTable
70
1
0
STYLE
5
11
100
AcDbSymbolTableRecord
100
AcDbTextStyleTableRecord
2
STANDARD
70
0
0
ENDTAB
0
TABLE
2
VIEW
5
6
100
AcDbSymbolTable
70
0
0
ENDTAB
0
TABLE
2
UCS
5
7
100
AcDbSymbolTable
70
0
0
ENDTAB
0
TABLE
2
APPID
5
9
100
AcDbSymbolTable
70
2
0
APPID
5
12
100
AcDbSymbolTableRecord
100
AcDbRegAppTableRecord
2
ACAD
70
0
0
ENDTAB
0
TABLE
2
DIMSTYLE
5
A
100
AcDbSymbolTable
70
1
0
ENDTAB
0
TABLE
2
BLOCK_RECORD
5
1
100
AcDbSymbolTable
70
1
0
BLOCK_RECORD
5
1F
100
AcDbSymbolTableRecord
100
AcDbBlockTableRecord
2
*MODEL_SPACE
0
BLOCK_RECORD
5
1B
100
AcDbSymbolTableRecord
100
AcDbBlockTableRecord
2
*PAPER_SPACE
0
ENDTAB
0
ENDSEC
0
SECTION
2
BLOCKS
0
BLOCK
5
20
100
AcDbEntity
100
AcDbBlockBegin
2
*MODEL_SPACE
0
ENDBLK
5
21
100
AcDbEntity
100
AcDbBlockEnd
0
BLOCK
5
1C
100
AcDbEntity
100
AcDbBlockBegin
2
*PAPER_SPACE
0
ENDBLK
5
1D
100
AcDbEntity
100
AcDbBlockEnd
0
ENDSEC
0
SECTION
2
ENTITIES
0
POINT
5
100
100
AcDbEntity
8
0
100
AcDbPoint
10
-237.24999999999892
20
269.41499999998155
30
0
0
POINT
5
101
100
AcDbEntity
8
0
100
AcDbPoint
10
-237.24999999999841
20
209.41499999998169
30
0
0
POINT
5
102
100
AcDbEntity
8
0
100
AcDbPoint
10
-237.24999999999838
20
209.41499999998169
30
0
0
POINT
5
103
100
AcDbEntity
8
0
100
AcDbPoint
10
-237.24999999999798
20
149.01499999998177
30
0
0
POINT
5
104
100
AcDbEntity
8
0
100
AcDbPoint
10
-237.2499999999975
20
89.414999999981873
30
0
0
POINT
5
105
100
AcDbEntity
8
0
100
AcDbPoint
10
-237.24999999999704
20
29.414999999981962
30
0
0
POINT
5
106
100
AcDbEntity
8
0
100
AcDbPoint
10
-133.25000000000091
20
269.41499999998246
30
0
0
POINT
5
107
100
AcDbEntity
8
0
100
AcDbPoint
10
-133.25000000000043
20
209.41499999998254
30
0
0
POINT
5
108
100
AcDbEntity
8
0
100
AcDbPoint
10
-133.25
20
149.4149999999826
30
0
0
POINT
5
109
100
AcDbEntity
8
0
100
AcDbPoint
10
-133.24999999999952
20
89.014999999982678
30
0
0
POINT
5
110
100
AcDbEntity
8
0
100
AcDbPoint
10
-133.24999999999906
20
29.414999999982751
30
0
0
POINT
5
111
100
AcDbEntity
8
0
100
AcDbPoint
10
-237.24999999999798
20
149.01499999998177
30
0
0
POINT
5
112
100
AcDbEntity
8
0
100
AcDbPoint
10
-133.24999999999952
20
89.014999999982678
30
0
0
POINT
5
113
100
AcDbEntity
8
0
100
AcDbPoint
10
-208.24999999999903
20
279.99999999998198
30
0
0
POINT
5
114
100
AcDbEntity
8
0
100
AcDbPoint
10
-162.24999999999915
20
292.99999999998226
30
0
0
CIRCLE
5
115
100
AcDbEntity
8
0
100
AcDbCircle
10
-133.25000000000043
20
208.99999999998258
30
-1.1102230246251565e-15
40
1.6659999999999897
210
1.3079657662959043e-41
220
5.2209234754953052e-69
230
1
0
CIRCLE
5
116
100
AcDbEntity
8
0
100
AcDbCircle
10
-153.24999999999943
20
153.99999999998246
30
0
40
3.499999999999996
210
1.3079657662959048e-41
220
-6.3108872417680958e-30
230
1
0
CIRCLE
5
117
100
AcDbEntity
8
0
100
AcDbCircle
10
-133.24999999999906
20
28.99999999998284
30
0
40
1.6659999999999897
210
1.3079657662959043e-41
220
5.2209234754953052e-69
230
1
0
CIRCLE
5
118
100
AcDbEntity
8
0
100
AcDbCircle
10
-133.24999999999952
20
88.999999999982748
30
0
40
1.6659999999999897
210
1.3079657662959043e-41
220
5.2209234754953052e-69
230
1
0
CIRCLE
5
119
100
AcDbEntity
8
0
100
AcDbCircle
10
-133.24999999999997
20
148.99999999998269
30
-1.1102230246251565e-15
40
1.6659999999999897
210
1.3079657662959043e-41
220
5.2209234754953052e-69
230
1
0
CIRCLE
5
120
100
AcDbEntity
8
0
100
AcDbCircle
10
-237.24999999999744
20
88.999999999981952
30
-1.1102230246251565e-15
40
1.6659999999999897
210
1.3079657662959043e-41
220
5.2209234754953052e-69
230
1
0
CIRCLE
5
121
100
AcDbEntity
8
0
100
AcDbCircle
10
-217.24999999999881
20
201.99999999998187
30
0
40
3.5000000000000142
210
1.307965766295904e-41
220
5.2209234754953032e-69
230
1
0
CIRCLE
5
122
100
AcDbEntity
8
0
100
AcDbCircle
10
-162.24999999999915
20
292.99999999998232
30
0
40
2.5174999999999947
210
7.8886090523409153e-31
220
3.1488457306499465e-58
230
1
0
CIRCLE
5
123
100
AcDbEntity
8
0
100
AcDbCircle
10
-153.24999999999793
20
11.499999999982675
30
0
40
3.499999999999996
210
1.3079657662959048e-41
220
-6.3108872417680958e-30
230
1
0
CIRCLE
5
124
100
AcDbEntity
8
0
100
AcDbCircle
10
-237.24999999999886
20
268.9999999999817
30
0
40
1.6659999999999897
210
1.3079657662959043e-41
220
5.2209234754953052e-69
230
1
0
CIRCLE
5
125
100
AcDbEntity
8
0
100
AcDbCircle
10
-217.24999999999795
20
35.499999999982151
30
0
40
3.5000000000000142
210
1.307965766295904e-41
220
5.2209234754953032e-69
230
1
0
CIRCLE
5
126
100
AcDbEntity
8
0
100
AcDbCircle
10
-217.24999999999784
20
11.499999999982185
30
1.1102230246251565e-15
40
3.5000000000000142
210
1.307965766295904e-41
220
5.2209234754953032e-69
230
1
0
CIRCLE
5
127
100
AcDbEntity
8
0
100
AcDbCircle
10
-153.24999999999991
20
201.99999999998238
30
0
40
3.499999999999996
210
1.3079657662959048e-41
220
-6.3108872417680958e-30
230
1
0
CIRCLE
5
128
100
AcDbEntity
8
0
100
AcDbCircle
10
-162.24999999999909
20
279.99999999998215
30
0
40
2.5174999999999947
210
7.8886090523409153e-31
220
3.1488457306499465e-58
230
1
0
CIRCLE
5
129
100
AcDbEntity
8
0
100
AcDbCircle
10
-217.24999999999855
20
153.99999999998198
30
1.1102230246251565e-15
40
3.5000000000000142
210
1.307965766295904e-41
220
5.2209234754953032e-69
230
1
0
CIRCLE
5
130
100
AcDbEntity
8
0
100
AcDbCircle
10
-237.24999999999795
20
148.9999999999819
30
-1.1102230246251565e-15
40
1.6659999999999897
210
1.3079657662959043e-41
220
5.2209234754953052e-69
230
1
0
CIRCLE
5
131
100
AcDbEntity
8
0
100
AcDbCircle
10
-217.24999999999866
20
177.99999999998192
30
0
40
3.5000000000000142
210
1.307965766295904e-41
220
5.2209234754953032e-69
230
1
0
CIRCLE
5
132
100
AcDbEntity
8
0
100
AcDbCircle
10
-133.25000000000091
20
268.99999999998249
30
0
40
1.6659999999999897
210
1.3079657662959043e-41
220
5.2209234754953052e-69
230
1
0
CIRCLE
5
133
100
AcDbEntity
8
0
100
AcDbCircle
10
-237.24999999999704
20
28.999999999982041
30
0
40
1.6659999999999897
210
1.3079657662959043e-41
220
5.2209234754953052e-69
230
1
0
CIRCLE
5
134
100
AcDbEntity
8
0
100
AcDbCircle
10
-153.24999999999818
20
35.499999999982641
30
0
40
3.499999999999996
210
1.3079657662959048e-41
220
-6.3108872417680958e-30
230
1
0
CIRCLE
5
135
100
AcDbEntity
8
0
100
AcDbCircle
10
-208.24999999999915
20
292.99999999998204
30
-1.1102230246251565e-15
40
2.5175000000000125
210
1.3079657662959043e-41
220
5.2209234754953042e-69
230
1
0
CIRCLE
5
136
100
AcDbEntity
8
0
100
AcDbCircle
10
-237.24999999999838
20
208.99999999998175
30
-1.1102230246251565e-15
40
1.6659999999999897
210
1.3079657662959043e-41
220
5.2209234754953052e-69
230
1
0
CIRCLE
5
137
100
AcDbEntity
8
0
100
AcDbCircle
10
-153.24999999999966
20
177.99999999998244
30
0
40
3.499999999999996
210
1.3079657662959048e-41
220
-6.3108872417680958e-30
230
1
0
CIRCLE
5
138
100
AcDbEntity
8
0
100
AcDbCircle
10
-208.24999999999903
20
279.99999999998204
30
0
40
2.5175000000000125
210
1.3079657662959043e-41
220
5.2209234754953042e-69
230
1
0
LWPOLYLINE
5
139
100
AcDbEntity
8
0
100
AcDbPolyline
90
4
70
1
43
0.0
10
-247.75000000000009
20
298.99999999998158
10
-247.74999999999778
20
-1.0000000000180975
10
-122.7499999999979
20
-1.0000000000170293
10
-122.74999999999913
20
298.99999999998255
0
CIRCLE
5
140
100
AcDbEntity
8
0
100
AcDbCircle
10
-208.24999999999903
20
279.99999999998198
30
0
40
2.5175000000000125
210
0
220
-0
230
1
0
CIRCLE
5
141
100
AcDbEntity
8
0
100
AcDbCircle
10
-153.24999999999969
20
177.99999999998235
30
0
40
3.4999999999999964
210
0
220
-0
230
1
0
CIRCLE
5
142
100
AcDbEntity
8
0
100
AcDbCircle
10
-237.24999999999841
20
209.41499999998169
30
0
40
1.6659999999999897
210
0
220
-0
230
1
0
CIRCLE
5
143
100
AcDbEntity
8
0
100
AcDbCircle
10
-208.24999999999915
20
292.99999999998198
30
0
40
2.5175000000000125
210
0
220
-0
230
1
0
CIRCLE
5
144
100
AcDbEntity
8
0
100
AcDbCircle
10
-153.24999999999821
20
35.49999999998257
30
0
40
3.4999999999999964
210
0
220
-0
230
1
0
CIRCLE
5
145
100
AcDbEntity
8
0
100
AcDbCircle
10
-237.24999999999704
20
29.414999999981962
30
0
40
1.6659999999999897
210
0
220
-0
230
1
0
CIRCLE
5
146
100
AcDbEntity
8
0
100
AcDbCircle
10
-133.25000000000091
20
269.41499999998246
30
0
40
1.6659999999999897
210
0
220
-0
230
1
0
CIRCLE
5
147
100
AcDbEntity
8
0
100
AcDbCircle
10
-217.24999999999866
20
177.99999999998187
30
0
40
3.5000000000000142
210
0
220
-0
230
1
0
CIRCLE
5
148
100
AcDbEntity
8
0
100
AcDbCircle
10
-237.24999999999798
20
149.01499999998177
30
0
40
1.6659999999999897
210
0
220
-0
230
1
0
CIRCLE
5
149
100
AcDbEntity
8
0
100
AcDbCircle
10
-217.24999999999855
20
153.99999999998192
30
0
40
3.5000000000000142
210
0
220
-0
230
1
0
CIRCLE
5
150
100
AcDbEntity
8
0
100
AcDbCircle
10
-162.24999999999909
20
279.99999999998209
30
0
40
2.5174999999999947
210
0
220
-0
230
1
0
CIRCLE
5
151
100
AcDbEntity
8
0
100
AcDbCircle
10
-153.24999999999994
20
201.99999999998229
30
0
40
3.4999999999999964
210
0
220
-0
230
1
0
CIRCLE
5
152
100
AcDbEntity
8
0
100
AcDbCircle
10
-217.24999999999784
20
11.499999999982112
30
0
40
3.5000000000000142
210
0
220
-0
230
1
0
CIRCLE
5
153
100
AcDbEntity
8
0
100
AcDbCircle
10
-217.24999999999795
20
35.499999999982073
30
0
40
3.5000000000000142
210
0
220
-0
230
1
0
CIRCLE
5
154
100
AcDbEntity
8
0
100
AcDbCircle
10
-237.24999999999892
20
269.41499999998155
30
0
40
1.6659999999999897
210
0
220
-0
230
1
0
CIRCLE
5
155
100
AcDbEntity
8
0
100
AcDbCircle
10
-153.24999999999795
20
11.499999999982602
30
0
40
3.4999999999999964
210
0
220
-0
230
1
0
CIRCLE
5
156
100
AcDbEntity
8
0
100
AcDbCircle
10
-162.24999999999915
20
292.99999999998226
30
0
40
2.5174999999999947
210
0
220
-0
230
1
0
CIRCLE
5
157
100
AcDbEntity
8
0
100
AcDbCircle
10
-217.24999999999881
20
201.99999999998181
30
0
40
3.5000000000000142
210
0
220
-0
230
1
0
CIRCLE
5
158
100
AcDbEntity
8
0
100
AcDbCircle
10
-237.2499999999975
20
89.414999999981873
30
0
40
1.6659999999999897
210
0
220
-0
230
1
0
CIRCLE
5
159
100
AcDbEntity
8
0
100
AcDbCircle
10
-133.25
20
149.4149999999826
30
0
40
1.6659999999999897
210
0
220
-0
230
1
0
CIRCLE
5
160
100
AcDbEntity
8
0
100
AcDbCircle
10
-133.24999999999952
20
89.014999999982678
30
0
40
1.6659999999999897
210
0
220
-0
230
1
0
CIRCLE
5
161
100
AcDbEntity
8
0
100
AcDbCircle
10
-133.24999999999906
20
29.414999999982751
30
0
40
1.6659999999999897
210
0
220
-0
230
1
0
CIRCLE
5
162
100
AcDbEntity
8
0
100
AcDbCircle
10
-153.24999999999943
20
153.99999999998241
30
0
40
3.4999999999999964
210
0
220
-0
230
1
0
CIRCLE
5
163
100
AcDbEntity
8
0
100
AcDbCircle
10
-133.25000000000043
20
209.41499999998254
30
0
40
1.6659999999999897
210
0
220
-0
230
1
0
LWPOLYLINE
5
164
100
AcDbEntity
8
0
100
AcDbPolyline
90
8
70
1
43
0.0
10
-127.74999999999918
20
298.99999999998244
10
-242.75000000000011
20
298.99999999998153
42
0.41421356237309293
10
-247.75000000000006
20
293.99999999998153
10
-247.74999999999781
20
3.9999999999817959
42
0.41421356237309193
10
-242.74999999999778
20
-1.0000000000181193
10
-127.74999999999787
20
-1.0000000000171472
42
0.41421356237309598
10
-122.74999999999791
20
3.9999999999828688
10
-122.74999999999912
20
293.99999999998249
42
0.41421356237309398
0
LWPOLYLINE
5
165
100
AcDbEntity
8
0
100
AcDbPolyline
90
6
70
1
43
0.0
10
-237.24999999999892
20
265.26499999998157
10
-233.65599457429352
20
267.33999999998161
10
-233.65599457429352
20
271.48999999998159
10
-237.24999999999892
20
273.56499999998152
10
-240.84400542570427
20
271.48999999998159
10
-240.84400542570427
20
267.33999999998161
0
LWPOLYLINE
5
166
100
AcDbEntity
8
0
100
AcDbPolyline
90
6
70
1
43
0.0
10
-237.24999999999841
20
205.26499999998168
10
-233.65599457429309
20
207.33999999998176
10
-233.65599457429309
20
211.48999999998165
10
-237.24999999999841
20
213.56499999998161
10
-240.84400542570376
20
211.48999999998165
10
-240.84400542570376
20
207.33999999998176
0
LWPOLYLINE
5
167
100
AcDbEntity
8
0
100
AcDbPolyline
90
6
70
1
43
0.0
10
-237.24999999999838
20
213.56499999998169
10
-240.8440054257039
20
211.48999999998168
10
-240.8440054257039
20
207.33999999998161
10
-237.24999999999838
20
205.26499999998168
10
-233.65599457429295
20
207.33999999998167
10
-233.65599457429295
20
211.48999999998171
0
CIRCLE
5
168
100
AcDbEntity
8
0
100
AcDbCircle
10
-237.24999999999838
20
208.99999999998175
30
-1.1102230246251565e-15
40
1.6659999999999897
210
1.3079657662959043e-41
220
5.2209234754953052e-69
230
1
0
CIRCLE
5
169
100
AcDbEntity
8
0
100
AcDbCircle
10
-237.24999999999838
20
209.41499999998169
30
0
40
1.6659999999999897
210
0
220
-0
230
1
0
LWPOLYLINE
5
170
100
AcDbEntity
8
0
100
AcDbPolyline
90
6
70
1
43
0.0
10
-237.2499999999975
20
85.264999999981882
10
-233.65599457429212
20
87.339999999981913
10
-233.65599457429212
20
91.48999999998189
10
-237.2499999999975
20
93.564999999981865
10
-240.8440054257029
20
91.489999999981876
10
-240.8440054257029
20
87.339999999981927
0
LWPOLYLINE
5
171
100
AcDbEntity
8
0
100
AcDbPolyline
90
6
70
1
43
0.0
10
-237.24999999999704
20
25.26499999998196
10
-233.65599457429164
20
27.339999999981973
10
-233.65599457429164
20
31.489999999981958
10
-237.24999999999704
20
33.564999999981936
10
-240.84400542570245
20
31.489999999981958
10
-240.84400542570245
20
27.339999999981977
0
LWPOLYLINE
5
172
100
AcDbEntity
8
0
100
AcDbPolyline
90
6
70
1
43
0.0
10
-133.25000000000091
20
265.26499999998248
10
-129.65599457429556
20
267.33999999998247
10
-129.65599457429556
20
271.48999999998244
10
-133.25000000000091
20
273.56499999998238
10
-136.84400542570626
20
271.48999999998244
10
-136.84400542570626
20
267.33999999998247
0
LWPOLYLINE
5
173
100
AcDbEntity
8
0
100
AcDbPolyline
90
6
70
1
43
0.0
10
-133.25000000000043
20
205.26499999998254
10
-129.65599457429508
20
207.33999999998258
10
-129.65599457429508
20
211.4899999999825
10
-133.25000000000043
20
213.56499999998243
10
-136.8440054257058
20
211.4899999999825
10
-136.8440054257058
20
207.33999999998258
0
LWPOLYLINE
5
174
100
AcDbEntity
8
0
100
AcDbPolyline
90
6
70
1
43
0.0
10
-133.25
20
145.26499999998259
10
-129.65599457429454
20
147.33999999998258
10
-129.65599457429454
20
151.48999999998262
10
-133.25
20
153.56499999998266
10
-136.84400542570546
20
151.48999999998262
10
-136.84400542570546
20
147.33999999998261
0
LWPOLYLINE
5
175
100
AcDbEntity
8
0
100
AcDbPolyline
90
6
70
1
43
0.0
10
-133.24999999999906
20
25.264999999982752
10
-129.6559945742936
20
27.339999999982759
10
-129.6559945742936
20
31.489999999982775
10
-133.24999999999906
20
33.564999999982781
10
-136.84400542570449
20
31.489999999982761
10
-136.84400542570449
20
27.339999999982759
0
LWPOLYLINE
5
176
100
AcDbEntity
8
0
100
AcDbPolyline
90
6
70
1
43
0.0
10
-237.24999999999798
20
144.86499999998176
10
-233.65599457429255
20
146.93999999998181
10
-233.65599457429255
20
151.08999999998184
10
-237.24999999999798
20
153.16499999998186
10
-240.84400542570347
20
151.08999999998179
10
-240.84400542570347
20
146.93999999998181
0
LWPOLYLINE
5
177
100
AcDbEntity
8
0
100
AcDbPolyline
90
6
70
1
43
0.0
10
-133.24999999999952
20
84.8649999999827
10
-129.65599457429411
20
86.939999999982689
10
-129.65599457429411
20
91.089999999982666
10
-133.24999999999952
20
93.164999999982683
10
-136.84400542570495
20
91.08999999998268
10
-136.84400542570495
20
86.939999999982703
0
ENDSEC
0
SECTION
2
OBJECTS
0
DICTIONARY
5
C
100
AcDbDictionary
3
ACAD_GROUP
350
D
3
ACAD_MLINESTYLE
350
17
0
DICTIONARY
5
D
100
AcDbDictionary
0
DICTIONARY
5
1A
330
C
100
AcDbDictionary
0
DICTIONARY
5
17
100
AcDbDictionary
0
ENDSEC
0
EOF
