0
SECTION
2
HEADER
9
$INSUNITS
70
4
9
$ACADVER
1
AC1014
9
$HANDSEED
5
FFFF
0
ENDSEC
0
SECTION
2
TABLES
0
TABLE
2
VPORT
5
8
100
AcDbSymbolTable
0
ENDTAB
0
TABLE
2
LTYPE
5
5
100
AcDbSymbolTable
0
LTYPE
5
14
100
AcDbSymbolTableRecord
100
AcDbLinetypeTableRecord
2
BYBLOCK
70
0
0
LTYPE
5
15
100
AcDbSymbolTableRecord
100
AcDbLinetypeTableRecord
2
BYLAYER
70
0
0
LTYPE
5
16
100
AcDbSymbolTableRecord
100
AcDbLinetypeTableRecord
2
DASHED
70
0
3
Dashed __ __ __ __ __ __ __ __ __ __ __ __ __ _
72
65
73
2
40
0.75
49
0.5
74
0
49
-0.25
74
0
0
ENDTAB
0
TABLE
2
LAYER
5
2
100
AcDbSymbolTable
70
2
0
LAYER
5
50
100
AcDbSymbolTableRecord
100
AcDbLayerTableRecord
2
0
70
0
62
7
6
CONTINUOUS
0
ENDTAB
0
TABLE
2
STYLE
5
3
100
AcDbSymbolTable
70
1
0
STYLE
5
11
100
AcDbSymbolTableRecord
100
AcDbTextStyleTableRecord
2
STANDARD
70
0
0
ENDTAB
0
TABLE
2
VIEW
5
6
100
AcDbSymbolTable
70
0
0
ENDTAB
0
TABLE
2
UCS
5
7
100
AcDbSymbolTable
70
0
0
ENDTAB
0
TABLE
2
APPID
5
9
100
AcDbSymbolTable
70
2
0
APPID
5
12
100
AcDbSymbolTableRecord
100
AcDbRegAppTableRecord
2
ACAD
70
0
0
ENDTAB
0
TABLE
2
DIMSTYLE
5
A
100
AcDbSymbolTable
70
1
0
ENDTAB
0
TABLE
2
BLOCK_RECORD
5
1
100
AcDbSymbolTable
70
1
0
BLOCK_RECORD
5
1F
100
AcDbSymbolTableRecord
100
AcDbBlockTableRecord
2
*MODEL_SPACE
0
BLOCK_RECORD
5
1B
100
AcDbSymbolTableRecord
100
AcDbBlockTableRecord
2
*PAPER_SPACE
0
ENDTAB
0
ENDSEC
0
SECTION
2
BLOCKS
0
BLOCK
5
20
100
AcDbEntity
100
AcDbBlockBegin
2
*MODEL_SPACE
0
ENDBLK
5
21
100
AcDbEntity
100
AcDbBlockEnd
0
BLOCK
5
1C
100
AcDbEntity
100
AcDbBlockBegin
2
*PAPER_SPACE
0
ENDBLK
5
1D
100
AcDbEntity
100
AcDbBlockEnd
0
ENDSEC
0
SECTION
2
ENTITIES
0
LWPOLYLINE
5
100
100
AcDbEntity
8
0
100
AcDbPolyline
90
4
70
1
43
0.0
10
-247.74999618529853
20
-1.0000000148961949
10
-122.74999618529864
20
-1.0000000148951451
10
-122.74999618529991
20
298.99999998510447
10
-247.74999618530086
20
298.9999999851035
0
CIRCLE
5
101
100
AcDbEntity
8
0
100
AcDbCircle
10
-217.24999618529932
20
153.9999999851039
30
0
40
3.4999999999999973
210
-5.0807240541045013e-31
220
-3.906210252443743e-45
230
1
0
CIRCLE
5
102
100
AcDbEntity
8
0
100
AcDbCircle
10
-153.24999618530046
20
177.99999998510432
30
0
40
3.4999999999999973
210
-5.0807240541045013e-31
220
-3.906210252443743e-45
230
1
0
CIRCLE
5
103
100
AcDbEntity
8
0
100
AcDbCircle
10
-217.24999618529944
20
177.99999998510384
30
0
40
3.4999999999999973
210
-5.0807240541045013e-31
220
-3.906210252443743e-45
230
1
0
CIRCLE
5
104
100
AcDbEntity
8
0
100
AcDbCircle
10
-153.24999618530069
20
201.9999999851043
30
0
40
3.4999999999999973
210
-5.0807240541045013e-31
220
-3.906210252443743e-45
230
1
0
CIRCLE
5
105
100
AcDbEntity
8
0
100
AcDbCircle
10
-217.24999618529955
20
201.99999998510378
30
0
40
3.4999999999999973
210
-5.0807240541045013e-31
220
-3.906210252443743e-45
230
1
0
CIRCLE
5
106
100
AcDbEntity
8
0
100
AcDbCircle
10
-217.2499961852987
20
35.49999998510404
30
-5.5511151231257827e-16
40
3.4999999999999973
210
-5.0807240541045013e-31
220
-3.906210252443743e-45
230
1
0
CIRCLE
5
107
100
AcDbEntity
8
0
100
AcDbCircle
10
-153.2499961853002
20
153.99999998510435
30
0
40
3.4999999999999973
210
-5.0807240541045013e-31
220
-3.906210252443743e-45
230
1
0
CIRCLE
5
108
100
AcDbEntity
8
0
100
AcDbCircle
10
-153.2499961852987
20
11.499999985104568
30
0
40
3.4999999999999973
210
-5.0807240541045013e-31
220
-3.906210252443743e-45
230
1
0
CIRCLE
5
109
100
AcDbEntity
8
0
100
AcDbCircle
10
-217.24999618529861
20
11.499999985104077
30
0
40
3.4999999999999973
210
-5.0807240541045013e-31
220
-3.906210252443743e-45
230
1
0
CIRCLE
5
110
100
AcDbEntity
8
0
100
AcDbCircle
10
-153.24999618529895
20
35.499999985104537
30
-5.5511151231257827e-16
40
3.4999999999999973
210
-5.0807240541045013e-31
220
-3.906210252443743e-45
230
1
0
CIRCLE
5
111
100
AcDbEntity
8
0
100
AcDbCircle
10
-162.24999618529992
20
292.99999998510424
30
0
40
2.5174999999999983
210
-5.0807240541036045e-31
220
-3.9062102524430528e-45
230
1
0
CIRCLE
5
112
100
AcDbEntity
8
0
100
AcDbCircle
10
-162.24999618529984
20
279.99999998510407
30
0
40
2.5174999999999983
210
-5.0807240541036045e-31
220
-3.9062102524430528e-45
230
1
0
CIRCLE
5
113
100
AcDbEntity
8
0
100
AcDbCircle
10
-208.24999618529989
20
292.99999998510395
30
5.5511151231257827e-16
40
2.5174999999999983
210
-5.0807240541036045e-31
220
-3.9062102524430528e-45
230
1
0
CIRCLE
5
114
100
AcDbEntity
8
0
100
AcDbCircle
10
-208.24999618529978
20
279.99999998510395
30
0
40
2.5174999999999983
210
-5.0807240541036045e-31
220
-3.9062102524430528e-45
230
1
0
CIRCLE
5
115
100
AcDbEntity
8
0
100
AcDbCircle
10
-133.24999618529984
20
28.999999985104733
30
-5.5511151231257827e-16
40
1.6659999999999986
210
-5.0807240541049865e-31
220
6.3108872417680902e-30
230
1
0
CIRCLE
5
116
100
AcDbEntity
8
0
100
AcDbCircle
10
-133.24999618530029
20
88.999999985104651
30
-5.5511151231257827e-16
40
1.6659999999999986
210
-5.0807240541049865e-31
220
6.3108872417680902e-30
230
1
0
CIRCLE
5
117
100
AcDbEntity
8
0
100
AcDbCircle
10
-133.24999618530074
20
148.99999998510458
30
0
40
1.6659999999999986
210
-5.0807240541049865e-31
220
6.3108872417680902e-30
230
1
0
CIRCLE
5
118
100
AcDbEntity
8
0
100
AcDbCircle
10
-133.2499961853012
20
208.99999998510449
30
0
40
1.6659999999999986
210
-5.0807240541049865e-31
220
6.3108872417680902e-30
230
1
0
CIRCLE
5
119
100
AcDbEntity
8
0
100
AcDbCircle
10
-237.24999618529779
20
28.999999985103933
30
0
40
1.6659999999999986
210
-5.0807240541049865e-31
220
6.3108872417680902e-30
230
1
0
CIRCLE
5
120
100
AcDbEntity
8
0
100
AcDbCircle
10
-237.24999618529822
20
88.999999985103841
30
0
40
1.6659999999999986
210
-5.0807240541049865e-31
220
6.3108872417680902e-30
230
1
0
CIRCLE
5
121
100
AcDbEntity
8
0
100
AcDbCircle
10
-237.2499961852987
20
148.99999998510378
30
5.5511151231257827e-16
40
1.6659999999999986
210
-5.0807240541049865e-31
220
6.3108872417680902e-30
230
1
0
CIRCLE
5
122
100
AcDbEntity
8
0
100
AcDbCircle
10
-237.24999618529915
20
208.99999998510367
30
0
40
1.6659999999999986
210
-5.0807240541049865e-31
220
6.3108872417680902e-30
230
1
0
CIRCLE
5
123
100
AcDbEntity
8
0
100
AcDbCircle
10
-133.24999618530168
20
268.99999998510441
30
-5.5511151231257827e-16
40
1.6659999999999986
210
-5.0807240541049865e-31
220
6.3108872417680902e-30
230
1
0
CIRCLE
5
124
100
AcDbEntity
8
0
100
AcDbCircle
10
-237.24999618529964
20
268.99999998510361
30
0
40
1.6659999999999986
210
-5.0807240541049865e-31
220
6.3108872417680902e-30
230
1
0
ENDSEC
0
SECTION
2
OBJECTS
0
DICTIONARY
5
C
100
AcDbDictionary
3
ACAD_GROUP
350
D
3
ACAD_MLINESTYLE
350
17
0
DICTIONARY
5
D
100
AcDbDictionary
0
DICTIONARY
5
1A
330
C
100
AcDbDictionary
0
DICTIONARY
5
17
100
AcDbDictionary
0
ENDSEC
0
EOF
