0
SECTION
2
HEADER
9
$INSUNITS
70
4
9
$ACADVER
1
AC1014
9
$HANDSEED
5
FFFF
0
ENDSEC
0
SECTION
2
TABLES
0
TABLE
2
VPORT
5
8
100
AcDbSymbolTable
0
ENDTAB
0
TABLE
2
LTYPE
5
5
100
AcDbSymbolTable
0
LTYPE
5
14
100
AcDbSymbolTableRecord
100
AcDbLinetypeTableRecord
2
BYBLOCK
70
0
0
LTYPE
5
15
100
AcDbSymbolTableRecord
100
AcDbLinetypeTableRecord
2
BYLAYER
70
0
0
LTYPE
5
16
100
AcDbSymbolTableRecord
100
AcDbLinetypeTableRecord
2
DASHED
70
0
3
Dashed __ __ __ __ __ __ __ __ __ __ __ __ __ _
72
65
73
2
40
0.75
49
0.5
74
0
49
-0.25
74
0
0
ENDTAB
0
TABLE
2
LAYER
5
2
100
AcDbSymbolTable
70
2
0
LAYER
5
50
100
AcDbSymbolTableRecord
100
AcDbLayerTableRecord
2
0
70
0
62
7
6
CONTINUOUS
0
ENDTAB
0
TABLE
2
STYLE
5
3
100
AcDbSymbolTable
70
1
0
STYLE
5
11
100
AcDbSymbolTableRecord
100
AcDbTextStyleTableRecord
2
STANDARD
70
0
0
ENDTAB
0
TABLE
2
VIEW
5
6
100
AcDbSymbolTable
70
0
0
ENDTAB
0
TABLE
2
UCS
5
7
100
AcDbSymbolTable
70
0
0
ENDTAB
0
TABLE
2
APPID
5
9
100
AcDbSymbolTable
70
2
0
APPID
5
12
100
AcDbSymbolTableRecord
100
AcDbRegAppTableRecord
2
ACAD
70
0
0
ENDTAB
0
TABLE
2
DIMSTYLE
5
A
100
AcDbSymbolTable
70
1
0
ENDTAB
0
TABLE
2
BLOCK_RECORD
5
1
100
AcDbSymbolTable
70
1
0
BLOCK_RECORD
5
1F
100
AcDbSymbolTableRecord
100
AcDbBlockTableRecord
2
*MODEL_SPACE
0
BLOCK_RECORD
5
1B
100
AcDbSymbolTableRecord
100
AcDbBlockTableRecord
2
*PAPER_SPACE
0
ENDTAB
0
ENDSEC
0
SECTION
2
BLOCKS
0
BLOCK
5
20
100
AcDbEntity
100
AcDbBlockBegin
2
*MODEL_SPACE
0
ENDBLK
5
21
100
AcDbEntity
100
AcDbBlockEnd
0
BLOCK
5
1C
100
AcDbEntity
100
AcDbBlockBegin
2
*PAPER_SPACE
0
ENDBLK
5
1D
100
AcDbEntity
100
AcDbBlockEnd
0
ENDSEC
0
SECTION
2
ENTITIES
0
CIRCLE
5
100
100
AcDbEntity
8
0
100
AcDbCircle
10
-122.50000136356533
20
384.79999542236624
30
7.1054273576010019e-14
40
3.0000000000000004
210
-6.7048391312937044e-30
220
3.1554436208840048e-30
230
1
0
CIRCLE
5
101
100
AcDbEntity
8
0
100
AcDbCircle
10
-122.50000136356533
20
359.79999542236641
30
7.1054273576010019e-14
40
3.0000000000000004
210
-6.7048391312937044e-30
220
3.1554436208840048e-30
230
1
0
CIRCLE
5
102
100
AcDbEntity
8
0
100
AcDbCircle
10
-222.50000136356445
20
359.79999542236641
30
0
40
3.0000000000000004
210
-6.7048391312937044e-30
220
3.1554436208840048e-30
230
1
0
CIRCLE
5
103
100
AcDbEntity
8
0
100
AcDbCircle
10
-237.50000136356414
20
436.29999542236578
30
0
40
2.517499999999985
210
-6.7048391312937156e-30
220
3.1554436208840048e-30
230
1
0
CIRCLE
5
104
100
AcDbEntity
8
0
100
AcDbCircle
10
-133.5000013635628
20
436.29999542236453
30
7.1054273576010019e-14
40
2.517499999999985
210
-6.7048391312937044e-30
220
3.1554436208840048e-30
230
1
0
CIRCLE
5
105
100
AcDbEntity
8
0
100
AcDbCircle
10
-107.50000136356493
20
385.29999542236374
30
7.1054273576010019e-14
40
3.9999999999999787
210
4.6937702423735112e-29
220
1.5777218104423217e-30
230
1
0
CIRCLE
5
106
100
AcDbEntity
8
0
100
AcDbCircle
10
-133.50000136356238
20
449.2999954223643
30
0
40
3.9999999999999787
210
4.6937702423735112e-29
220
1.5777218104423217e-30
230
1
0
CIRCLE
5
107
100
AcDbEntity
8
0
100
AcDbCircle
10
-237.50000136356425
20
359.29999542236612
30
0
40
3.9999999999999787
210
4.6937702423735112e-29
220
1.5777218104423217e-30
230
1
0
CIRCLE
5
108
100
AcDbEntity
8
0
100
AcDbCircle
10
-107.5000013635659
20
359.29999542236385
30
7.1054273576010019e-14
40
3.9999999999999787
210
4.6937702423735112e-29
220
1.5777218104423217e-30
230
1
0
CIRCLE
5
109
100
AcDbEntity
8
0
100
AcDbCircle
10
-237.50000136356482
20
449.2999954223655
30
-7.1054273576010019e-14
40
3.9999999999999787
210
4.6937702423735112e-29
220
1.5777218104423217e-30
230
1
0
CIRCLE
5
110
100
AcDbEntity
8
0
100
AcDbCircle
10
-211.50000136356505
20
449.29999542236555
30
0
40
3.9999999999999747
210
2.4849597077546762e-29
220
1.5777218104421813e-30
230
1
0
CIRCLE
5
111
100
AcDbEntity
8
0
100
AcDbCircle
10
-107.5000013635626
20
449.29999542236328
30
0
40
3.9999999999999787
210
4.6937702423735112e-29
220
1.5777218104423217e-30
230
1
0
CIRCLE
5
112
100
AcDbEntity
8
0
100
AcDbCircle
10
-237.50000136356442
20
385.29999542236595
30
0
40
3.9999999999999787
210
4.6937702423735112e-29
220
1.5777218104423217e-30
230
1
0
CIRCLE
5
113
100
AcDbEntity
8
0
100
AcDbCircle
10
-237.50000136356465
20
423.29999542236578
30
-7.1054273576010019e-14
40
3.9999999999999787
210
4.6937702423735112e-29
220
1.5777218104423217e-30
230
1
0
CIRCLE
5
114
100
AcDbEntity
8
0
100
AcDbCircle
10
-152.50000136355499
20
392.29999542237988
30
0
40
4.4999999999999742
210
9.4269356736995798e-29
220
1.5777218104426216e-30
230
1
0
CIRCLE
5
115
100
AcDbEntity
8
0
100
AcDbCircle
10
-192.50000136355106
20
416.29999542238039
30
0
40
4.4999999999999716
210
8.1647582253459643e-29
220
5.1791643399392183e-43
230
1
0
CIRCLE
5
116
100
AcDbEntity
8
0
100
AcDbCircle
10
-152.50000136355106
20
416.29999542237965
30
7.1054273576010019e-14
40
4.4999999999999742
210
9.4269356736995798e-29
220
1.5777218104426216e-30
230
1
0
CIRCLE
5
117
100
AcDbEntity
8
0
100
AcDbCircle
10
-192.50000136355499
20
392.29999542238056
30
0
40
4.4999999999999716
210
8.1647582253459643e-29
220
5.1791643399392183e-43
230
1
0
CIRCLE
5
118
100
AcDbEntity
8
0
100
AcDbCircle
10
-133.5000013635657
20
359.29999542236487
30
7.1054273576010019e-14
40
3.9999999999999787
210
4.6937702423735112e-29
220
1.5777218104423217e-30
230
1
0
CIRCLE
5
119
100
AcDbEntity
8
0
100
AcDbCircle
10
-211.50000136356448
20
359.29999542236624
30
0
40
3.9999999999999747
210
2.4849597077546762e-29
220
1.5777218104421813e-30
230
1
0
CIRCLE
5
120
100
AcDbEntity
8
0
100
AcDbCircle
10
-211.50000136356465
20
385.29999542236601
30
0
40
3.9999999999999747
210
2.4849597077546762e-29
220
1.5777218104421813e-30
230
1
0
CIRCLE
5
121
100
AcDbEntity
8
0
100
AcDbCircle
10
-133.50000136356473
20
385.29999542236465
30
7.1054273576010019e-14
40
3.9999999999999787
210
4.6937702423735112e-29
220
1.5777218104423217e-30
230
1
0
CIRCLE
5
122
100
AcDbEntity
8
0
100
AcDbCircle
10
-172.50000136356488
20
372.29999542236635
30
0
40
2.517499999999985
210
-6.7048391312937044e-30
220
3.1554436208840048e-30
230
1
0
CIRCLE
5
123
100
AcDbEntity
8
0
100
AcDbCircle
10
-107.50000136356356
20
423.29999542236351
30
0
40
3.9999999999999787
210
4.6937702423735112e-29
220
1.5777218104423217e-30
230
1
0
CIRCLE
5
124
100
AcDbEntity
8
0
100
AcDbCircle
10
-211.50000136356437
20
436.2999954223659
30
0
40
2.517499999999985
210
-6.7048391312937156e-30
220
3.1554436208840048e-30
230
1
0
CIRCLE
5
125
100
AcDbEntity
8
0
100
AcDbCircle
10
-107.50000136356303
20
436.29999542236357
30
7.1054273576010019e-14
40
2.517499999999985
210
-6.7048391312937156e-30
220
3.1554436208840048e-30
230
1
0
CIRCLE
5
126
100
AcDbEntity
8
0
100
AcDbCircle
10
-133.50000136356334
20
423.29999542236453
30
0
40
3.9999999999999787
210
4.6937702423735112e-29
220
1.5777218104423217e-30
230
1
0
CIRCLE
5
127
100
AcDbEntity
8
0
100
AcDbCircle
10
-211.50000136356488
20
423.29999542236584
30
0
40
3.9999999999999747
210
2.4849597077546762e-29
220
1.5777218104421813e-30
230
1
0
LWPOLYLINE
5
128
100
AcDbEntity
8
0
100
AcDbPolyline
90
16
70
1
43
0.0
10
-244.00000136356095
20
451.29999542236396
10
-244.00000136356451
20
338.2999954223647
42
0.41421356237310752
10
-239.00000136356451
20
333.29999542236453
10
-106.00000136356482
20
333.29999542236521
42
0.41421356237310231
10
-101.00000136356491
20
338.29999542236533
10
-101.00000136356981
20
451.29999542236465
42
0.41421356237309709
10
-106.00000136356984
20
456.29999542236447
10
-135.50000136356559
20
456.2999954223643
42
0.41421356237308876
10
-140.50000136356547
20
451.29999542236453
10
-140.50000136356653
20
429.29999542237954
42
-0.41421356237307422
10
-147.50000136356641
20
422.29999542237999
10
-197.50000136353378
20
422.29999542237971
42
-0.41421356237309653
10
-204.50000136353378
20
429.29999542237965
10
-204.50000136353384
20
451.29999542236396
42
0.41421356237308876
10
-209.50000136353384
20
456.29999542236391
10
-239.00000136356098
20
456.29999542236385
42
0.41421356237309293
0
CIRCLE
5
129
100
AcDbEntity
8
0
100
AcDbCircle
10
-222.50000136356445
20
384.79999542236624
30
0
40
3.0000000000000004
210
0
220
0
230
1
0
LINE
5
130
100
AcDbEntity
8
0
100
AcDbLine
10
-172.50000136356465
20
333.29999542236487
30
7.1054273576010334e-14
11
-172.5000013635501
21
422.29999542237982
31
3.5527136788004631e-14
6
DASHED
0
ENDSEC
0
SECTION
2
OBJECTS
0
DICTIONARY
5
C
100
AcDbDictionary
3
ACAD_GROUP
350
D
3
ACAD_MLINESTYLE
350
17
0
DICTIONARY
5
D
100
AcDbDictionary
0
DICTIONARY
5
1A
330
C
100
AcDbDictionary
0
DICTIONARY
5
17
100
AcDbDictionary
0
ENDSEC
0
EOF
