  0
SECTION
  2
HEADER
  9
$ACADVER
  1
AC1009
  0
ENDSEC
  0
SECTION
  2
ENTITIES
  0
CIRCLE
  5
90
  8
Layer_0
  62
1
  10
339
  20
334.73001
  30
0
  40
1.5
  0
CIRCLE
  5
90
  8
Layer_0
  62
1
  10
339
  20
65.27002
  30
0
  40
1.5
  0
CIRCLE
  5
90
  8
Layer_0
  62
1
  10
261
  20
334.73001
  30
0
  40
1.5
  0
CIRCLE
  5
90
  8
Layer_0
  62
1
  10
261
  20
65.27002
  30
0
  40
1.5
  0
POLYLINE
  5
90
  8
Layer_0
  62
1
  66
1
  10
0
  20
0
  30
0
  0
VERTEX
  5
90
  8
Layer_0
  10
290
  20
339.73002
  0
VERTEX
  5
91
  8
Layer_0
  10
290
  20
345.00002
  0
VERTEX
  5
92
  8
Layer_0
  10
290
  20
345.73002
  0
VERTEX
  5
93
  8
Layer_0
  10
300
  20
345.73002
  0
VERTEX
  5
94
  8
Layer_0
  10
310
  20
345.73002
  0
VERTEX
  5
95
  8
Layer_0
  10
310
  20
345.00002
  0
VERTEX
  5
96
  8
Layer_0
  10
310
  20
339.73002
  0
VERTEX
  5
97
  8
Layer_0
  10
350
  20
339.73001
  0
VERTEX
  5
98
  8
Layer_0
  10
350
  20
312.17001
  0
VERTEX
  5
99
  8
Layer_0
  10
344
  20
312.17001
  0
VERTEX
  5
9a
  8
Layer_0
  10
344
  20
294.79002
  0
VERTEX
  5
9b
  8
Layer_0
  10
350
  20
294.79002
  0
VERTEX
  5
9c
  8
Layer_0
  10
350
  20
208.69002
  0
VERTEX
  5
9d
  8
Layer_0
  10
344
  20
208.69002
  0
VERTEX
  5
9e
  8
Layer_0
  10
344
  20
191.31001
  0
VERTEX
  5
9f
  8
Layer_0
  10
350
  20
191.31001
  0
VERTEX
  5
a0
  8
Layer_0
  10
350
  20
105.21002
  0
VERTEX
  5
a1
  8
Layer_0
  10
344
  20
105.21002
  0
VERTEX
  5
a2
  8
Layer_0
  10
344
  20
87.830017
  0
VERTEX
  5
a3
  8
Layer_0
  10
350
  20
87.830017
  0
VERTEX
  5
a4
  8
Layer_0
  10
350
  20
60.27002
  0
VERTEX
  5
a5
  8
Layer_0
  10
310
  20
60.27002
  0
VERTEX
  5
a6
  8
Layer_0
  10
310
  20
54.27002
  0
VERTEX
  5
a7
  8
Layer_0
  10
300
  20
54.27002
  0
VERTEX
  5
a8
  8
Layer_0
  10
290
  20
54.27002
  0
VERTEX
  5
a9
  8
Layer_0
  10
290
  20
60.27002
  0
VERTEX
  5
aa
  8
Layer_0
  10
249.99998
  20
60.27002
  0
VERTEX
  5
ab
  8
Layer_0
  10
250
  20
87.830017
  0
VERTEX
  5
ac
  8
Layer_0
  10
256
  20
87.830017
  0
VERTEX
  5
ad
  8
Layer_0
  10
256
  20
105.21002
  0
VERTEX
  5
ae
  8
Layer_0
  10
250
  20
105.21002
  0
VERTEX
  5
af
  8
Layer_0
  10
250
  20
191.31001
  0
VERTEX
  5
b0
  8
Layer_0
  10
256
  20
191.31001
  0
VERTEX
  5
b1
  8
Layer_0
  10
256
  20
208.69002
  0
VERTEX
  5
b2
  8
Layer_0
  10
250
  20
208.69002
  0
VERTEX
  5
b3
  8
Layer_0
  10
250
  20
294.79002
  0
VERTEX
  5
b4
  8
Layer_0
  10
256
  20
294.79002
  0
VERTEX
  5
b5
  8
Layer_0
  10
256
  20
312.17001
  0
VERTEX
  5
b6
  8
Layer_0
  10
250
  20
312.17001
  0
VERTEX
  5
b7
  8
Layer_0
  10
250
  20
339.73002
  0
VERTEX
  5
b8
  8
Layer_0
  10
290
  20
339.73002
  0
SEQEND
  0
ENDSEC
  0
EOF
