  0
SECTION
  2
HEADER
  9
$ACADVER
  1
AC1009
  0
ENDSEC
  0
SECTION
  2
ENTITIES
  0
CIRCLE
  5
90
  8
Layer_0
  62
1
  10
256
  20
239
  30
0
  40
1.5
  0
CIRCLE
  5
90
  8
Layer_0
  62
1
  10
344
  20
239
  30
0
  40
1.5
  0
CIRCLE
  5
90
  8
Layer_0
  62
1
  10
256
  20
161
  30
0
  40
1.5
  0
CIRCLE
  5
90
  8
Layer_0
  62
1
  10
344
  20
161
  30
0
  40
1.5
  0
POLYLINE
  5
90
  8
Layer_0
  62
1
  66
1
  10
0
  20
0
  30
0
  0
VERTEX
  5
90
  8
Layer_0
  10
251
  20
209.89999
  0
VERTEX
  5
91
  8
Layer_0
  10
251
  20
200
  0
VERTEX
  5
92
  8
Layer_0
  10
251
  20
190.10001
  0
VERTEX
  5
93
  8
Layer_0
  10
245
  20
190.10001
  0
SEQEND
  0
POLYLINE
  5
95
  8
Layer_0
  62
1
  66
1
  10
0
  20
0
  30
0
  0
VERTEX
  5
95
  8
Layer_0
  10
251
  20
209.89999
  0
VERTEX
  5
96
  8
Layer_0
  10
245
  20
209.89999
  0
VERTEX
  5
97
  8
Layer_0
  10
245
  20
250
  0
VERTEX
  5
98
  8
Layer_0
  10
290.10001
  20
250
  0
VERTEX
  5
99
  8
Layer_0
  10
290.10001
  20
244
  0
VERTEX
  5
9a
  8
Layer_0
  10
300
  20
244
  0
VERTEX
  5
9b
  8
Layer_0
  10
309.89999
  20
244
  0
VERTEX
  5
9c
  8
Layer_0
  10
309.89999
  20
250
  0
VERTEX
  5
9d
  8
Layer_0
  10
355
  20
250
  0
VERTEX
  5
9e
  8
Layer_0
  10
355
  20
209.89999
  0
VERTEX
  5
9f
  8
Layer_0
  10
349
  20
209.89999
  0
VERTEX
  5
a0
  8
Layer_0
  10
349
  20
200
  0
VERTEX
  5
a1
  8
Layer_0
  10
349
  20
190.10001
  0
VERTEX
  5
a2
  8
Layer_0
  10
355
  20
190.10001
  0
SEQEND
  0
POLYLINE
  5
a4
  8
Layer_0
  62
1
  66
1
  10
0
  20
0
  30
0
  0
VERTEX
  5
a4
  8
Layer_0
  10
355
  20
190.10001
  0
VERTEX
  5
a5
  8
Layer_0
  10
355
  20
150
  0
VERTEX
  5
a6
  8
Layer_0
  10
309.89999
  20
150
  0
VERTEX
  5
a7
  8
Layer_0
  10
309.89999
  20
156
  0
VERTEX
  5
a8
  8
Layer_0
  10
300
  20
156
  0
VERTEX
  5
a9
  8
Layer_0
  10
290.10001
  20
156
  0
VERTEX
  5
aa
  8
Layer_0
  10
290.10001
  20
150
  0
VERTEX
  5
ab
  8
Layer_0
  10
245
  20
150
  0
VERTEX
  5
ac
  8
Layer_0
  10
245
  20
190.10001
  0
SEQEND
  0
ENDSEC
  0
EOF
