  0
SECTION
  2
HEADER
  9
$ACADVER
  1
AC1009
  0
ENDSEC
  0
SECTION
  2
ENTITIES
  0
CIRCLE
  5
90
  8
Layer_1
  62
1
  10
277
  20
227.5
  30
0
  40
1
  0
CIRCLE
  5
90
  8
Layer_1
  62
1
  10
277
  20
202.5
  30
0
  40
1
  0
CIRCLE
  5
90
  8
Layer_1
  62
1
  10
219
  20
227.5
  30
0
  40
1
  0
CIRCLE
  5
90
  8
Layer_1
  62
1
  10
219
  20
202.5
  30
0
  40
1
  0
POLYLINE
  5
90
  8
Layer_1
  62
1
  66
1
  10
0
  20
0
  30
0
  0
VERTEX
  5
90
  8
Layer_1
  10
185.15218
  20
243.74899
  0
VERTEX
  5
91
  8
Layer_1
  10
185.1254
  20
243.44842
  0
VERTEX
  5
92
  8
Layer_1
  10
185.04859
  20
243.16846
  0
VERTEX
  5
93
  8
Layer_1
  10
184.92706
  20
242.91512
  0
VERTEX
  5
94
  8
Layer_1
  10
184.76609
  20
242.69439
  0
VERTEX
  5
95
  8
Layer_1
  10
184.57101
  20
242.51227
  0
VERTEX
  5
96
  8
Layer_1
  10
184.3471
  20
242.37477
  0
VERTEX
  5
97
  8
Layer_1
  10
184.09966
  20
242.28786
  0
VERTEX
  5
98
  8
Layer_1
  10
183.834
  20
242.25756
  0
VERTEX
  5
99
  8
Layer_1
  10
183.56834
  20
242.28786
  0
VERTEX
  5
9a
  8
Layer_1
  10
183.3209
  20
242.37477
  0
VERTEX
  5
9b
  8
Layer_1
  10
183.09699
  20
242.51227
  0
VERTEX
  5
9c
  8
Layer_1
  10
182.9019
  20
242.69439
  0
VERTEX
  5
9d
  8
Layer_1
  10
182.74094
  20
242.91512
  0
VERTEX
  5
9e
  8
Layer_1
  10
182.61941
  20
243.16846
  0
VERTEX
  5
9f
  8
Layer_1
  10
182.5426
  20
243.44842
  0
VERTEX
  5
a0
  8
Layer_1
  10
182.51582
  20
243.74899
  0
VERTEX
  5
a1
  8
Layer_1
  10
182.5426
  20
244.04957
  0
VERTEX
  5
a2
  8
Layer_1
  10
182.61941
  20
244.32953
  0
VERTEX
  5
a3
  8
Layer_1
  10
182.74094
  20
244.58287
  0
VERTEX
  5
a4
  8
Layer_1
  10
182.9019
  20
244.80359
  0
VERTEX
  5
a5
  8
Layer_1
  10
183.09699
  20
244.98571
  0
VERTEX
  5
a6
  8
Layer_1
  10
183.3209
  20
245.12322
  0
VERTEX
  5
a7
  8
Layer_1
  10
183.56834
  20
245.21012
  0
VERTEX
  5
a8
  8
Layer_1
  10
183.834
  20
245.24042
  0
VERTEX
  5
a9
  8
Layer_1
  10
184.09966
  20
245.21012
  0
VERTEX
  5
aa
  8
Layer_1
  10
184.3471
  20
245.12322
  0
VERTEX
  5
ab
  8
Layer_1
  10
184.57101
  20
244.98571
  0
VERTEX
  5
ac
  8
Layer_1
  10
184.76609
  20
244.80359
  0
VERTEX
  5
ad
  8
Layer_1
  10
184.92706
  20
244.58287
  0
VERTEX
  5
ae
  8
Layer_1
  10
185.04859
  20
244.32953
  0
VERTEX
  5
af
  8
Layer_1
  10
185.1254
  20
244.04957
  0
VERTEX
  5
b0
  8
Layer_1
  10
185.15218
  20
243.74899
  0
SEQEND
  0
POLYLINE
  5
b2
  8
Layer_1
  62
1
  66
1
  10
0
  20
0
  30
0
  0
VERTEX
  5
b2
  8
Layer_1
  10
185.15218
  20
156.25101
  0
VERTEX
  5
b3
  8
Layer_1
  10
185.1254
  20
155.95043
  0
VERTEX
  5
b4
  8
Layer_1
  10
185.04859
  20
155.67047
  0
VERTEX
  5
b5
  8
Layer_1
  10
184.92706
  20
155.41713
  0
VERTEX
  5
b6
  8
Layer_1
  10
184.76609
  20
155.19641
  0
VERTEX
  5
b7
  8
Layer_1
  10
184.57101
  20
155.01429
  0
VERTEX
  5
b8
  8
Layer_1
  10
184.3471
  20
154.87678
  0
VERTEX
  5
b9
  8
Layer_1
  10
184.09966
  20
154.78988
  0
VERTEX
  5
ba
  8
Layer_1
  10
183.834
  20
154.75958
  0
VERTEX
  5
bb
  8
Layer_1
  10
183.56834
  20
154.78988
  0
VERTEX
  5
bc
  8
Layer_1
  10
183.3209
  20
154.87678
  0
VERTEX
  5
bd
  8
Layer_1
  10
183.09699
  20
155.01429
  0
VERTEX
  5
be
  8
Layer_1
  10
182.9019
  20
155.19641
  0
VERTEX
  5
bf
  8
Layer_1
  10
182.74094
  20
155.41713
  0
VERTEX
  5
c0
  8
Layer_1
  10
182.61941
  20
155.67047
  0
VERTEX
  5
c1
  8
Layer_1
  10
182.5426
  20
155.95043
  0
VERTEX
  5
c2
  8
Layer_1
  10
182.51582
  20
156.25101
  0
VERTEX
  5
c3
  8
Layer_1
  10
182.5426
  20
156.55158
  0
VERTEX
  5
c4
  8
Layer_1
  10
182.61941
  20
156.83154
  0
VERTEX
  5
c5
  8
Layer_1
  10
182.74094
  20
157.08488
  0
VERTEX
  5
c6
  8
Layer_1
  10
182.9019
  20
157.30561
  0
VERTEX
  5
c7
  8
Layer_1
  10
183.09699
  20
157.48773
  0
VERTEX
  5
c8
  8
Layer_1
  10
183.3209
  20
157.62523
  0
VERTEX
  5
c9
  8
Layer_1
  10
183.56834
  20
157.71214
  0
VERTEX
  5
ca
  8
Layer_1
  10
183.834
  20
157.74244
  0
VERTEX
  5
cb
  8
Layer_1
  10
184.09966
  20
157.71214
  0
VERTEX
  5
cc
  8
Layer_1
  10
184.3471
  20
157.62523
  0
VERTEX
  5
cd
  8
Layer_1
  10
184.57101
  20
157.48773
  0
VERTEX
  5
ce
  8
Layer_1
  10
184.76609
  20
157.30561
  0
VERTEX
  5
cf
  8
Layer_1
  10
184.92706
  20
157.08488
  0
VERTEX
  5
d0
  8
Layer_1
  10
185.04859
  20
156.83154
  0
VERTEX
  5
d1
  8
Layer_1
  10
185.1254
  20
156.55158
  0
VERTEX
  5
d2
  8
Layer_1
  10
185.15218
  20
156.25101
  0
SEQEND
  0
CIRCLE
  5
d4
  8
Layer_1
  62
1
  10
454
  20
244
  30
0
  40
1.5
  0
CIRCLE
  5
d4
  8
Layer_1
  62
1
  10
454
  20
156
  30
0
  40
1.5
  0
CIRCLE
  5
d4
  8
Layer_1
  62
1
  10
304
  20
225
  30
0
  40
11
  0
CIRCLE
  5
d4
  8
Layer_1
  62
1
  10
431
  20
214
  30
0
  40
11.5
  0
CIRCLE
  5
d4
  8
Layer_1
  62
1
  10
431
  20
172
  30
0
  40
6.5
  0
CIRCLE
  5
d4
  8
Layer_1
  62
1
  10
344
  20
175
  30
0
  40
11
  0
CIRCLE
  5
d4
  8
Layer_1
  62
1
  10
387
  20
200
  30
0
  40
6.5
  0
CIRCLE
  5
d4
  8
Layer_1
  62
1
  10
387
  20
172
  30
0
  40
6.5
  0
CIRCLE
  5
d4
  8
Layer_1
  62
1
  10
387
  20
228
  30
0
  40
6.5
  0
CIRCLE
  5
d4
  8
Layer_1
  62
1
  10
304
  20
175
  30
0
  40
11
  0
CIRCLE
  5
d4
  8
Layer_1
  62
1
  10
344
  20
225
  30
0
  40
11
  0
CIRCLE
  5
d4
  8
Layer_1
  62
1
  10
223
  20
181.005
  30
0
  40
6.5
  0
CIRCLE
  5
d4
  8
Layer_1
  62
1
  10
248
  20
181.005
  30
0
  40
6.5
  0
CIRCLE
  5
d4
  8
Layer_1
  62
1
  10
273
  20
181.005
  30
0
  40
6.5
  0
POLYLINE
  5
d4
  8
Layer_1
  62
1
  66
1
  10
0
  20
0
  30
0
  0
VERTEX
  5
d4
  8
Layer_1
  10
310.37939
  20
254.68594
  0
VERTEX
  5
d5
  8
Layer_1
  10
327.95517
  20
254.68594
  0
VERTEX
  5
d6
  8
Layer_1
  10
327.95517
  20
248.72021
  0
VERTEX
  5
d7
  8
Layer_1
  10
413.85669
  20
248.72021
  0
VERTEX
  5
d8
  8
Layer_1
  10
413.85669
  20
254.68594
  0
VERTEX
  5
d9
  8
Layer_1
  10
431.43246
  20
254.68594
  0
VERTEX
  5
da
  8
Layer_1
  10
431.43246
  20
248.72021
  0
VERTEX
  5
db
  8
Layer_1
  10
458.89459
  20
248.72021
  0
VERTEX
  5
dc
  8
Layer_1
  10
458.89459
  20
209.94299
  0
VERTEX
  5
dd
  8
Layer_1
  10
464.1673
  20
209.94299
  0
VERTEX
  5
de
  8
Layer_1
  10
464.1673
  20
190.05724
  0
VERTEX
  5
df
  8
Layer_1
  10
458.89459
  20
190.05724
  0
VERTEX
  5
e0
  8
Layer_1
  10
458.89459
  20
151.28
  0
VERTEX
  5
e1
  8
Layer_1
  10
431.43246
  20
151.28
  0
VERTEX
  5
e2
  8
Layer_1
  10
431.43246
  20
145.31427
  0
VERTEX
  5
e3
  8
Layer_1
  10
413.85669
  20
145.31427
  0
VERTEX
  5
e4
  8
Layer_1
  10
413.85669
  20
151.28
  0
VERTEX
  5
e5
  8
Layer_1
  10
327.95517
  20
151.28
  0
VERTEX
  5
e6
  8
Layer_1
  10
327.95517
  20
145.31427
  0
VERTEX
  5
e7
  8
Layer_1
  10
310.37939
  20
145.31427
  0
VERTEX
  5
e8
  8
Layer_1
  10
310.37939
  20
151.28
  0
VERTEX
  5
e9
  8
Layer_1
  10
224.47789
  20
151.28
  0
VERTEX
  5
ea
  8
Layer_1
  10
224.47789
  20
145.31427
  0
VERTEX
  5
eb
  8
Layer_1
  10
206.90213
  20
145.31427
  0
VERTEX
  5
ec
  8
Layer_1
  10
206.90213
  20
151.28
  0
VERTEX
  5
ed
  8
Layer_1
  10
179.44
  20
151.28
  0
VERTEX
  5
ee
  8
Layer_1
  10
179.44
  20
190.05724
  0
VERTEX
  5
ef
  8
Layer_1
  10
174.16727
  20
190.05724
  0
VERTEX
  5
f0
  8
Layer_1
  10
174.16727
  20
209.94299
  0
VERTEX
  5
f1
  8
Layer_1
  10
179.44
  20
209.94299
  0
VERTEX
  5
f2
  8
Layer_1
  10
179.44
  20
248.72021
  0
VERTEX
  5
f3
  8
Layer_1
  10
206.90213
  20
248.72021
  0
VERTEX
  5
f4
  8
Layer_1
  10
206.90213
  20
254.68594
  0
VERTEX
  5
f5
  8
Layer_1
  10
224.47789
  20
254.68594
  0
VERTEX
  5
f6
  8
Layer_1
  10
224.47789
  20
248.72021
  0
VERTEX
  5
f7
  8
Layer_1
  10
310.37939
  20
248.72021
  0
VERTEX
  5
f8
  8
Layer_1
  10
310.37939
  20
254.68594
  0
SEQEND
  0
POLYLINE
  5
fa
  8
Layer_1
  62
1
  66
1
  10
0
  20
0
  30
0
  0
VERTEX
  5
fa
  8
Layer_1
  10
273.5
  20
229
  0
VERTEX
  5
fb
  8
Layer_1
  10
273.5
  20
201
  0
VERTEX
  5
fc
  8
Layer_1
  10
222.5
  20
201
  0
VERTEX
  5
fd
  8
Layer_1
  10
222.5
  20
229
  0
VERTEX
  5
fe
  8
Layer_1
  10
273.5
  20
229
  0
SEQEND
  0
POLYLINE
  5
100
  8
Layer_0
  62
5
  66
1
  10
0
  20
0
  30
0
  0
VERTEX
  5
100
  8
Layer_0
  10
272.68863
  20
164.728
  0
VERTEX
  5
101
  8
Layer_0
  10
272.77823
  20
164.70602
  42
-0.35080744
  0
VERTEX
  5
102
  8
Layer_0
  10
273.02261
  20
164.23654
  42
-0.21794182
  0
VERTEX
  5
103
  8
Layer_0
  10
272.89761
  20
163.9317
  42
-0.21794146
  0
VERTEX
  5
104
  8
Layer_0
  10
272.58463
  20
163.82883
  42
-0.21788481
  0
VERTEX
  5
105
  8
Layer_0
  10
272.27179
  20
163.93179
  42
-0.21788613
  0
VERTEX
  5
106
  8
Layer_0
  10
272.14688
  20
164.23654
  42
-0.20528277
  0
VERTEX
  5
107
  8
Layer_0
  10
272.20795
  20
164.55426
  42
-0.20528323
  0
VERTEX
  5
108
  8
Layer_0
  10
272.48087
  20
164.728
  42
-0.070505439
  0
VERTEX
  5
109
  8
Layer_0
  10
272.68863
  20
164.728
  0
SEQEND
  0
POLYLINE
  5
10b
  8
Layer_0
  62
5
  66
1
  10
0
  20
0
  30
0
  0
VERTEX
  5
10b
  8
Layer_0
  10
275.50235
  20
168.15207
  42
-0.30378379
  0
VERTEX
  5
10c
  8
Layer_0
  10
276.62418
  20
167.27756
  42
-0.18404505
  0
VERTEX
  5
10d
  8
Layer_0
  10
276.54922
  20
164.54855
  42
-0.30497419
  0
VERTEX
  5
10e
  8
Layer_0
  10
275.31387
  20
163.82883
  42
-0.36045134
  0
VERTEX
  5
10f
  8
Layer_0
  10
273.93692
  20
164.884
  42
-0.14677164
  0
VERTEX
  5
110
  8
Layer_0
  10
273.99991
  20
167.28317
  42
-0.36084884
  0
VERTEX
  5
111
  8
Layer_0
  10
275.50235
  20
168.15207
  0
SEQEND
  0
POLYLINE
  5
113
  8
Layer_0
  62
5
  66
1
  10
0
  20
0
  30
0
  0
VERTEX
  5
113
  8
Layer_0
  10
271.36685
  20
167.48312
  0
VERTEX
  5
114
  8
Layer_0
  10
269.09341
  20
164.50095
  0
VERTEX
  5
115
  8
Layer_0
  10
271.4335
  20
164.50095
  0
VERTEX
  5
116
  8
Layer_0
  10
271.4335
  20
163.90109
  0
VERTEX
  5
117
  8
Layer_0
  10
268.33121
  20
163.90109
  0
VERTEX
  5
118
  8
Layer_0
  10
268.33121
  20
164.50656
  0
VERTEX
  5
119
  8
Layer_0
  10
270.60562
  20
167.48874
  0
VERTEX
  5
11a
  8
Layer_0
  10
268.45132
  20
167.48874
  0
VERTEX
  5
11b
  8
Layer_0
  10
268.45132
  20
168.08884
  0
VERTEX
  5
11c
  8
Layer_0
  10
271.36685
  20
168.08884
  0
VERTEX
  5
11d
  8
Layer_0
  10
271.36685
  20
167.48312
  0
SEQEND
  0
POLYLINE
  5
11f
  8
Layer_0
  62
5
  66
1
  10
0
  20
0
  30
0
  0
VERTEX
  5
11f
  8
Layer_0
  10
275.20987
  20
167.5798
  0
VERTEX
  5
120
  8
Layer_0
  10
275.11368
  20
167.56369
  42
0.26662716
  0
VERTEX
  5
121
  8
Layer_0
  10
274.61295
  20
167.07175
  42
0.077608332
  0
VERTEX
  5
122
  8
Layer_0
  10
274.51602
  20
166.36105
  42
0.019954126
  0
VERTEX
  5
123
  8
Layer_0
  10
274.52652
  20
165.36594
  42
0.14713091
  0
VERTEX
  5
124
  8
Layer_0
  10
274.74722
  20
164.66452
  42
0.35289154
  0
VERTEX
  5
125
  8
Layer_0
  10
275.68326
  20
164.49216
  42
0.22482411
  0
VERTEX
  5
126
  8
Layer_0
  10
276.06998
  20
165.12814
  42
0.060591419
  0
VERTEX
  5
127
  8
Layer_0
  10
276.06998
  20
166.86252
  42
0.22432989
  0
VERTEX
  5
128
  8
Layer_0
  10
275.68326
  20
167.49826
  42
0.15210529
  0
VERTEX
  5
129
  8
Layer_0
  10
275.20987
  20
167.5798
  0
SEQEND
  0
POLYLINE
  5
12b
  8
Layer_0
  62
5
  70
1
  66
1
  10
0
  20
0
  30
0
  0
VERTEX
  5
12b
  8
Layer_0
  10
272.68863
  20
167.08591
  0
VERTEX
  5
12c
  8
Layer_0
  10
272.77823
  20
167.06393
  42
-0.35059043
  0
VERTEX
  5
12d
  8
Layer_0
  10
273.02261
  20
166.59543
  42
-0.21831042
  0
VERTEX
  5
12e
  8
Layer_0
  10
272.89789
  20
166.29025
  42
-0.21831063
  0
VERTEX
  5
12f
  8
Layer_0
  10
272.58463
  20
166.18747
  42
-0.21825416
  0
VERTEX
  5
130
  8
Layer_0
  10
272.27151
  20
166.29033
  42
-0.21825433
  0
VERTEX
  5
131
  8
Layer_0
  10
272.14688
  20
166.59543
  42
-0.20515533
  0
VERTEX
  5
132
  8
Layer_0
  10
272.20828
  20
166.91257
  42
-0.2051555
  0
VERTEX
  5
133
  8
Layer_0
  10
272.48087
  20
167.08591
  42
-0.070505439
  0
SEQEND
  0
POLYLINE
  5
135
  8
Layer_0
  62
5
  66
1
  10
0
  20
0
  30
0
  0
VERTEX
  5
135
  8
Layer_0
  10
247.58943
  20
164.728
  0
VERTEX
  5
136
  8
Layer_0
  10
247.67903
  20
164.70602
  42
-0.35109382
  0
VERTEX
  5
137
  8
Layer_0
  10
247.92317
  20
164.23654
  42
-0.21802828
  0
VERTEX
  5
138
  8
Layer_0
  10
247.79831
  20
163.93175
  42
-0.21802808
  0
VERTEX
  5
139
  8
Layer_0
  10
247.48543
  20
163.82883
  42
-0.21794167
  0
VERTEX
  5
13a
  8
Layer_0
  10
247.17244
  20
163.9317
  42
-0.21794153
  0
VERTEX
  5
13b
  8
Layer_0
  10
247.04744
  20
164.23654
  42
-0.2052826
  0
VERTEX
  5
13c
  8
Layer_0
  10
247.10851
  20
164.55426
  42
-0.20528189
  0
VERTEX
  5
13d
  8
Layer_0
  10
247.38142
  20
164.728
  42
-0.070422602
  0
VERTEX
  5
13e
  8
Layer_0
  10
247.58943
  20
164.728
  0
SEQEND
  0
POLYLINE
  5
140
  8
Layer_0
  62
5
  66
1
  10
0
  20
0
  30
0
  0
VERTEX
  5
140
  8
Layer_0
  10
250.40291
  20
168.15207
  42
-0.3037839
  0
VERTEX
  5
141
  8
Layer_0
  10
251.52473
  20
167.27756
  42
-0.18408247
  0
VERTEX
  5
142
  8
Layer_0
  10
251.44978
  20
164.54855
  42
-0.30497392
  0
VERTEX
  5
143
  8
Layer_0
  10
250.21443
  20
163.82883
  42
-0.36055492
  0
VERTEX
  5
144
  8
Layer_0
  10
248.83772
  20
164.884
  42
-0.14697627
  0
VERTEX
  5
145
  8
Layer_0
  10
248.90071
  20
167.28317
  42
-0.360876
  0
VERTEX
  5
146
  8
Layer_0
  10
250.40291
  20
168.15207
  0
SEQEND
  0
POLYLINE
  5
148
  8
Layer_0
  62
5
  66
1
  10
0
  20
0
  30
0
  0
VERTEX
  5
148
  8
Layer_0
  10
244.97859
  20
166.22311
  0
VERTEX
  5
149
  8
Layer_0
  10
244.99641
  20
166.22311
  0
VERTEX
  5
14a
  8
Layer_0
  10
246.01057
  20
168.08884
  0
VERTEX
  5
14b
  8
Layer_0
  10
246.75496
  20
168.08884
  0
VERTEX
  5
14c
  8
Layer_0
  10
245.30281
  20
165.5632
  0
VERTEX
  5
14d
  8
Layer_0
  10
245.30281
  20
163.90109
  0
VERTEX
  5
14e
  8
Layer_0
  10
244.6241
  20
163.90109
  0
VERTEX
  5
14f
  8
Layer_0
  10
244.6241
  20
165.55099
  0
VERTEX
  5
150
  8
Layer_0
  10
243.18416
  20
168.08884
  0
VERTEX
  5
151
  8
Layer_0
  10
243.95857
  20
168.08884
  0
VERTEX
  5
152
  8
Layer_0
  10
244.97859
  20
166.22311
  0
SEQEND
  0
POLYLINE
  5
154
  8
Layer_0
  62
5
  66
1
  10
0
  20
0
  30
0
  0
VERTEX
  5
154
  8
Layer_0
  10
250.11043
  20
167.5798
  0
VERTEX
  5
155
  8
Layer_0
  10
250.01448
  20
167.56369
  42
0.26670258
  0
VERTEX
  5
156
  8
Layer_0
  10
249.51375
  20
167.07175
  42
0.077918348
  0
VERTEX
  5
157
  8
Layer_0
  10
249.41658
  20
166.36105
  42
0.019952774
  0
VERTEX
  5
158
  8
Layer_0
  10
249.42708
  20
165.36594
  42
0.14651964
  0
VERTEX
  5
159
  8
Layer_0
  10
249.64778
  20
164.66452
  42
0.35286257
  0
VERTEX
  5
15a
  8
Layer_0
  10
250.58382
  20
164.49216
  42
0.2248227
  0
VERTEX
  5
15b
  8
Layer_0
  10
250.97054
  20
165.12814
  42
0.060590786
  0
VERTEX
  5
15c
  8
Layer_0
  10
250.97054
  20
166.86252
  42
0.22432997
  0
VERTEX
  5
15d
  8
Layer_0
  10
250.58382
  20
167.49826
  42
0.15218068
  0
VERTEX
  5
15e
  8
Layer_0
  10
250.11043
  20
167.5798
  0
SEQEND
  0
POLYLINE
  5
160
  8
Layer_0
  62
5
  70
1
  66
1
  10
0
  20
0
  30
0
  0
VERTEX
  5
160
  8
Layer_0
  10
247.58943
  20
167.08591
  0
VERTEX
  5
161
  8
Layer_0
  10
247.67903
  20
167.06393
  42
-0.3508782
  0
VERTEX
  5
162
  8
Layer_0
  10
247.92317
  20
166.59543
  42
-0.2183969
  0
VERTEX
  5
163
  8
Layer_0
  10
247.79858
  20
166.29028
  42
-0.21839737
  0
VERTEX
  5
164
  8
Layer_0
  10
247.48543
  20
166.18747
  42
-0.21831046
  0
VERTEX
  5
165
  8
Layer_0
  10
247.17216
  20
166.29025
  42
-0.21831064
  0
VERTEX
  5
166
  8
Layer_0
  10
247.04744
  20
166.59543
  42
-0.20515543
  0
VERTEX
  5
167
  8
Layer_0
  10
247.10883
  20
166.91257
  42
-0.20515531
  0
VERTEX
  5
168
  8
Layer_0
  10
247.38142
  20
167.08591
  42
-0.070422602
  0
SEQEND
  0
POLYLINE
  5
16a
  8
Layer_0
  62
5
  66
1
  10
0
  20
0
  30
0
  0
VERTEX
  5
16a
  8
Layer_0
  10
223.83154
  20
164.728
  0
VERTEX
  5
16b
  8
Layer_0
  10
223.92114
  20
164.70602
  42
-0.35128992
  0
VERTEX
  5
16c
  8
Layer_0
  10
224.16528
  20
164.23654
  42
-0.21818593
  0
VERTEX
  5
16d
  8
Layer_0
  10
224.04051
  20
163.93164
  42
-0.21818537
  0
VERTEX
  5
16e
  8
Layer_0
  10
223.72754
  20
163.82883
  42
-0.21818531
  0
VERTEX
  5
16f
  8
Layer_0
  10
223.41457
  20
163.93164
  42
-0.21818607
  0
VERTEX
  5
170
  8
Layer_0
  10
223.28979
  20
164.23654
  42
-0.20546331
  0
VERTEX
  5
171
  8
Layer_0
  10
223.35063
  20
164.55428
  42
-0.20546263
  0
VERTEX
  5
172
  8
Layer_0
  10
223.62354
  20
164.728
  42
-0.070422602
  0
VERTEX
  5
173
  8
Layer_0
  10
223.83154
  20
164.728
  0
SEQEND
  0
POLYLINE
  5
175
  8
Layer_0
  62
5
  66
1
  10
0
  20
0
  30
0
  0
VERTEX
  5
175
  8
Layer_0
  10
226.64526
  20
168.15207
  42
-0.30373215
  0
VERTEX
  5
176
  8
Layer_0
  10
227.76685
  20
167.27756
  42
-0.1842407
  0
VERTEX
  5
177
  8
Layer_0
  10
227.69189
  20
164.54855
  42
-0.30499068
  0
VERTEX
  5
178
  8
Layer_0
  10
226.45654
  20
163.82883
  42
-0.36053289
  0
VERTEX
  5
179
  8
Layer_0
  10
225.07983
  20
164.884
  42
-0.14692574
  0
VERTEX
  5
17a
  8
Layer_0
  10
225.14282
  20
167.28317
  42
-0.36087513
  0
VERTEX
  5
17b
  8
Layer_0
  10
226.64526
  20
168.15207
  0
SEQEND
  0
POLYLINE
  5
17d
  8
Layer_0
  62
5
  66
1
  10
0
  20
0
  30
0
  0
VERTEX
  5
17d
  8
Layer_0
  10
220.96289
  20
166.52878
  0
VERTEX
  5
17e
  8
Layer_0
  10
220.97412
  20
166.52878
  0
VERTEX
  5
17f
  8
Layer_0
  10
221.94067
  20
168.08884
  0
VERTEX
  5
180
  8
Layer_0
  10
222.69067
  20
168.08884
  0
VERTEX
  5
181
  8
Layer_0
  10
221.37061
  20
166.0488
  0
VERTEX
  5
182
  8
Layer_0
  10
222.74414
  20
163.90109
  0
VERTEX
  5
183
  8
Layer_0
  10
221.94629
  20
163.90109
  0
VERTEX
  5
184
  8
Layer_0
  10
220.93286
  20
165.56882
  0
VERTEX
  5
185
  8
Layer_0
  10
220.91406
  20
165.56882
  0
VERTEX
  5
186
  8
Layer_0
  10
219.91187
  20
163.90109
  0
VERTEX
  5
187
  8
Layer_0
  10
219.16187
  20
163.90109
  0
VERTEX
  5
188
  8
Layer_0
  10
220.51855
  20
166.04318
  0
VERTEX
  5
189
  8
Layer_0
  10
219.21069
  20
168.08884
  0
VERTEX
  5
18a
  8
Layer_0
  10
220.00854
  20
168.08884
  0
VERTEX
  5
18b
  8
Layer_0
  10
220.96289
  20
166.52878
  0
SEQEND
  0
POLYLINE
  5
18d
  8
Layer_0
  62
5
  66
1
  10
0
  20
0
  30
0
  0
VERTEX
  5
18d
  8
Layer_0
  10
226.35278
  20
167.5798
  0
VERTEX
  5
18e
  8
Layer_0
  10
226.25659
  20
167.56369
  42
0.26670244
  0
VERTEX
  5
18f
  8
Layer_0
  10
225.75586
  20
167.07175
  42
0.077918345
  0
VERTEX
  5
190
  8
Layer_0
  10
225.65869
  20
166.36105
  42
0.01995421
  0
VERTEX
  5
191
  8
Layer_0
  10
225.66919
  20
165.36594
  42
0.14652001
  0
VERTEX
  5
192
  8
Layer_0
  10
225.88989
  20
164.66452
  42
0.35281866
  0
VERTEX
  5
193
  8
Layer_0
  10
226.82593
  20
164.49216
  42
0.2253427
  0
VERTEX
  5
194
  8
Layer_0
  10
227.21265
  20
165.12814
  42
0.060590991
  0
VERTEX
  5
195
  8
Layer_0
  10
227.21265
  20
166.86252
  42
0.22484937
  0
VERTEX
  5
196
  8
Layer_0
  10
226.82593
  20
167.49826
  42
0.15227866
  0
VERTEX
  5
197
  8
Layer_0
  10
226.35278
  20
167.5798
  0
SEQEND
  0
POLYLINE
  5
199
  8
Layer_0
  62
5
  70
1
  66
1
  10
0
  20
0
  30
0
  0
VERTEX
  5
199
  8
Layer_0
  10
223.83154
  20
167.08591
  0
VERTEX
  5
19a
  8
Layer_0
  10
223.92114
  20
167.06393
  42
-0.3510746
  0
VERTEX
  5
19b
  8
Layer_0
  10
224.16528
  20
166.59543
  42
-0.21855437
  0
VERTEX
  5
19c
  8
Layer_0
  10
224.04079
  20
166.29019
  42
-0.21855381
  0
VERTEX
  5
19d
  8
Layer_0
  10
223.72754
  20
166.18747
  42
-0.21855405
  0
VERTEX
  5
19e
  8
Layer_0
  10
223.41429
  20
166.29019
  42
-0.21855393
  0
VERTEX
  5
19f
  8
Layer_0
  10
223.28979
  20
166.59543
  42
-0.20533662
  0
VERTEX
  5
1a0
  8
Layer_0
  10
223.35097
  20
166.9126
  42
-0.20533633
  0
VERTEX
  5
1a1
  8
Layer_0
  10
223.62354
  20
167.08591
  42
-0.070422602
  0
SEQEND
  0
POLYLINE
  5
1a3
  8
Layer_0
  62
5
  66
1
  10
0
  20
0
  30
0
  0
VERTEX
  5
1a3
  8
Layer_0
  10
430.37842
  20
194.07108
  42
-0.10659462
  0
VERTEX
  5
1a4
  8
Layer_0
  10
431.08032
  20
193.86014
  42
-0.21791814
  0
VERTEX
  5
1a5
  8
Layer_0
  10
431.91235
  20
192.63699
  42
-0.16902064
  0
VERTEX
  5
1a6
  8
Layer_0
  10
431.69995
  20
190.60867
  42
-0.31176272
  0
VERTEX
  5
1a7
  8
Layer_0
  10
429.97949
  20
189.75662
  42
-0.32075773
  0
VERTEX
  5
1a8
  8
Layer_0
  10
428.50146
  20
190.98099
  42
-0.18363312
  0
VERTEX
  5
1a9
  8
Layer_0
  10
428.65747
  20
193.21902
  42
-0.31190529
  0
VERTEX
  5
1aa
  8
Layer_0
  10
430.37842
  20
194.07108
  0
SEQEND
  0
POLYLINE
  5
1ac
  8
Layer_0
  62
5
  66
1
  10
0
  20
0
  30
0
  0
VERTEX
  5
1ac
  8
Layer_0
  10
426.13916
  20
193.99954
  0
VERTEX
  5
1ad
  8
Layer_0
  10
426.32617
  20
193.97488
  42
-0.29545261
  0
VERTEX
  5
1ae
  8
Layer_0
  10
427.58691
  20
192.82938
  42
-0.18332919
  0
VERTEX
  5
1af
  8
Layer_0
  10
427.43506
  20
190.6387
  42
-0.28753517
  0
VERTEX
  5
1b0
  8
Layer_0
  10
425.94263
  20
189.8201
  0
VERTEX
  5
1b1
  8
Layer_0
  10
424.46045
  20
189.8201
  0
VERTEX
  5
1b2
  8
Layer_0
  10
424.46045
  20
194.00784
  0
VERTEX
  5
1b3
  8
Layer_0
  10
425.94263
  20
194.00784
  0
VERTEX
  5
1b4
  8
Layer_0
  10
426.13916
  20
193.99954
  0
SEQEND
  0
POLYLINE
  5
1b6
  8
Layer_0
  62
5
  66
1
  10
0
  20
0
  30
0
  0
VERTEX
  5
1b6
  8
Layer_0
  10
434.96606
  20
192.24442
  0
VERTEX
  5
1b7
  8
Layer_0
  10
436.86182
  20
192.24442
  0
VERTEX
  5
1b8
  8
Layer_0
  10
436.86182
  20
194.00784
  0
VERTEX
  5
1b9
  8
Layer_0
  10
437.53955
  20
194.00784
  0
VERTEX
  5
1ba
  8
Layer_0
  10
437.53955
  20
189.8201
  0
VERTEX
  5
1bb
  8
Layer_0
  10
436.86182
  20
189.8201
  0
VERTEX
  5
1bc
  8
Layer_0
  10
436.86182
  20
191.64432
  0
VERTEX
  5
1bd
  8
Layer_0
  10
434.96606
  20
191.64432
  0
VERTEX
  5
1be
  8
Layer_0
  10
434.96606
  20
189.8201
  0
VERTEX
  5
1bf
  8
Layer_0
  10
434.28735
  20
189.8201
  0
VERTEX
  5
1c0
  8
Layer_0
  10
434.28735
  20
194.00784
  0
VERTEX
  5
1c1
  8
Layer_0
  10
434.96606
  20
194.00784
  0
VERTEX
  5
1c2
  8
Layer_0
  10
434.96606
  20
192.24442
  0
SEQEND
  0
POLYLINE
  5
1c4
  8
Layer_0
  62
5
  66
1
  10
0
  20
0
  30
0
  0
VERTEX
  5
1c4
  8
Layer_0
  10
429.94482
  20
193.45901
  42
0.28246716
  0
VERTEX
  5
1c5
  8
Layer_0
  10
429.17651
  20
192.76321
  42
0.082336433
  0
VERTEX
  5
1c6
  8
Layer_0
  10
429.09839
  20
192.24539
  42
0.035638636
  0
VERTEX
  5
1c7
  8
Layer_0
  10
429.11792
  20
191.30887
  42
0.24004049
  0
VERTEX
  5
1c8
  8
Layer_0
  10
429.6394
  20
190.47903
  42
0.30721557
  0
VERTEX
  5
1c9
  8
Layer_0
  10
430.88721
  20
190.6011
  42
0.21132179
  0
VERTEX
  5
1ca
  8
Layer_0
  10
431.25928
  20
191.58255
  42
0.035636587
  0
VERTEX
  5
1cb
  8
Layer_0
  10
431.23975
  20
192.51907
  42
0.24232942
  0
VERTEX
  5
1cc
  8
Layer_0
  10
430.71655
  20
193.34866
  42
0.17363698
  0
VERTEX
  5
1cd
  8
Layer_0
  10
429.94482
  20
193.45901
  0
SEQEND
  0
POLYLINE
  5
1cf
  8
Layer_0
  62
5
  66
1
  10
0
  20
0
  30
0
  0
VERTEX
  5
1cf
  8
Layer_0
  10
425.13916
  20
193.40775
  0
VERTEX
  5
1d0
  8
Layer_0
  10
425.13916
  20
190.41995
  0
VERTEX
  5
1d1
  8
Layer_0
  10
425.94263
  20
190.41995
  42
0.40580148
  0
VERTEX
  5
1d2
  8
Layer_0
  10
426.96899
  20
191.31009
  42
0.043313712
  0
VERTEX
  5
1d3
  8
Layer_0
  10
426.96899
  20
192.51785
  42
0.40472063
  0
VERTEX
  5
1d4
  8
Layer_0
  10
425.94263
  20
193.40775
  0
VERTEX
  5
1d5
  8
Layer_0
  10
425.13916
  20
193.40775
  0
SEQEND
  0
POLYLINE
  5
1d7
  8
Layer_0
  62
5
  70
1
  66
1
  10
0
  20
0
  30
0
  0
VERTEX
  5
1d7
  8
Layer_0
  10
433.30396
  20
192.45999
  0
VERTEX
  5
1d8
  8
Layer_0
  10
432.72168
  20
192.45999
  0
VERTEX
  5
1d9
  8
Layer_0
  10
432.72168
  20
194.26004
  0
VERTEX
  5
1da
  8
Layer_0
  10
433.30396
  20
194.26004
  0
SEQEND
  0
POLYLINE
  5
1dc
  8
Layer_0
  62
5
  66
1
  10
0
  20
0
  30
0
  0
VERTEX
  5
1dc
  8
Layer_0
  10
427.48459
  20
159.15707
  0
VERTEX
  5
1dd
  8
Layer_0
  10
427.67429
  20
159.13071
  42
-0.29000457
  0
VERTEX
  5
1de
  8
Layer_0
  10
428.96213
  20
157.9332
  42
-0.18352432
  0
VERTEX
  5
1df
  8
Layer_0
  10
428.80612
  20
155.69467
  42
-0.31168785
  0
VERTEX
  5
1e0
  8
Layer_0
  10
427.08566
  20
154.84262
  42
-0.32077891
  0
VERTEX
  5
1e1
  8
Layer_0
  10
425.60764
  20
156.06699
  42
-0.18363319
  0
VERTEX
  5
1e2
  8
Layer_0
  10
425.76364
  20
158.30502
  42
-0.31198507
  0
VERTEX
  5
1e3
  8
Layer_0
  10
427.48459
  20
159.15707
  0
SEQEND
  0
POLYLINE
  5
1e5
  8
Layer_0
  62
5
  66
1
  10
0
  20
0
  30
0
  0
VERTEX
  5
1e5
  8
Layer_0
  10
423.97824
  20
159.07236
  0
VERTEX
  5
1e6
  8
Layer_0
  10
424.21945
  20
159.00839
  42
-0.27556171
  0
VERTEX
  5
1e7
  8
Layer_0
  10
424.90207
  20
158.10751
  42
-0.16846149
  0
VERTEX
  5
1e8
  8
Layer_0
  10
424.74289
  20
157.10165
  42
-0.27621029
  0
VERTEX
  5
1e9
  8
Layer_0
  10
423.70407
  20
156.57382
  0
VERTEX
  5
1ea
  8
Layer_0
  10
422.58176
  20
156.57382
  0
VERTEX
  5
1eb
  8
Layer_0
  10
422.58176
  20
154.9061
  0
VERTEX
  5
1ec
  8
Layer_0
  10
421.90305
  20
154.9061
  0
VERTEX
  5
1ed
  8
Layer_0
  10
421.90305
  20
159.09384
  0
VERTEX
  5
1ee
  8
Layer_0
  10
423.70407
  20
159.09384
  0
VERTEX
  5
1ef
  8
Layer_0
  10
423.97824
  20
159.07236
  0
SEQEND
  0
POLYLINE
  5
1f1
  8
Layer_0
  62
5
  66
1
  10
0
  20
0
  30
0
  0
VERTEX
  5
1f1
  8
Layer_0
  10
430.91428
  20
155.68588
  0
VERTEX
  5
1f2
  8
Layer_0
  10
430.9321
  20
155.68588
  0
VERTEX
  5
1f3
  8
Layer_0
  10
431.26779
  20
157.07822
  0
VERTEX
  5
1f4
  8
Layer_0
  10
431.76657
  20
159.09384
  0
VERTEX
  5
1f5
  8
Layer_0
  10
432.52219
  20
159.09384
  42
-0.0028821035
  0
VERTEX
  5
1f6
  8
Layer_0
  10
433.34445
  20
155.69174
  0
VERTEX
  5
1f7
  8
Layer_0
  10
433.36227
  20
155.69174
  42
0.0012077151
  0
VERTEX
  5
1f8
  8
Layer_0
  10
434.10666
  20
159.09384
  0
VERTEX
  5
1f9
  8
Layer_0
  10
434.77219
  20
159.09384
  0
VERTEX
  5
1fa
  8
Layer_0
  10
433.73996
  20
154.9061
  0
VERTEX
  5
1fb
  8
Layer_0
  10
432.97775
  20
154.9061
  0
VERTEX
  5
1fc
  8
Layer_0
  10
432.13229
  20
158.34384
  0
VERTEX
  5
1fd
  8
Layer_0
  10
432.12009
  20
158.34384
  0
VERTEX
  5
1fe
  8
Layer_0
  10
431.80222
  20
157.0726
  0
VERTEX
  5
1ff
  8
Layer_0
  10
431.25656
  20
154.9061
  0
VERTEX
  5
200
  8
Layer_0
  10
430.49435
  20
154.9061
  0
VERTEX
  5
201
  8
Layer_0
  10
429.50436
  20
159.09384
  0
VERTEX
  5
202
  8
Layer_0
  10
430.19431
  20
159.09384
  0
VERTEX
  5
203
  8
Layer_0
  10
430.91428
  20
155.68588
  0
SEQEND
  0
POLYLINE
  5
205
  8
Layer_0
  62
5
  66
1
  10
0
  20
0
  30
0
  0
VERTEX
  5
205
  8
Layer_0
  10
438.11349
  20
158.49374
  0
VERTEX
  5
206
  8
Layer_0
  10
436.11008
  20
158.49374
  0
VERTEX
  5
207
  8
Layer_0
  10
436.11008
  20
157.33041
  0
VERTEX
  5
208
  8
Layer_0
  10
437.9277
  20
157.33041
  0
VERTEX
  5
209
  8
Layer_0
  10
437.9277
  20
156.73032
  0
VERTEX
  5
20a
  8
Layer_0
  10
436.11008
  20
156.73032
  0
VERTEX
  5
20b
  8
Layer_0
  10
436.11008
  20
155.50595
  0
VERTEX
  5
20c
  8
Layer_0
  10
438.11349
  20
155.50595
  0
VERTEX
  5
20d
  8
Layer_0
  10
438.11349
  20
154.9061
  0
VERTEX
  5
20e
  8
Layer_0
  10
435.43112
  20
154.9061
  0
VERTEX
  5
20f
  8
Layer_0
  10
435.43112
  20
159.09384
  0
VERTEX
  5
210
  8
Layer_0
  10
438.11349
  20
159.09384
  0
VERTEX
  5
211
  8
Layer_0
  10
438.11349
  20
158.49374
  0
SEQEND
  0
POLYLINE
  5
213
  8
Layer_0
  62
5
  66
1
  10
0
  20
0
  30
0
  0
VERTEX
  5
213
  8
Layer_0
  10
441.06271
  20
159.0726
  42
-0.34040384
  0
VERTEX
  5
214
  8
Layer_0
  10
441.98752
  20
158.10971
  42
-0.19389874
  0
VERTEX
  5
215
  8
Layer_0
  10
441.80051
  20
157.08701
  42
-0.1732323
  0
VERTEX
  5
216
  8
Layer_0
  10
441.19113
  20
156.67026
  0
VERTEX
  5
217
  8
Layer_0
  10
442.09787
  20
154.9061
  0
VERTEX
  5
218
  8
Layer_0
  10
441.34128
  20
154.9061
  0
VERTEX
  5
219
  8
Layer_0
  10
440.50119
  20
156.59824
  0
VERTEX
  5
21a
  8
Layer_0
  10
439.66769
  20
156.59824
  0
VERTEX
  5
21b
  8
Layer_0
  10
439.66769
  20
154.9061
  0
VERTEX
  5
21c
  8
Layer_0
  10
438.98898
  20
154.9061
  0
VERTEX
  5
21d
  8
Layer_0
  10
438.98898
  20
159.09384
  0
VERTEX
  5
21e
  8
Layer_0
  10
440.79562
  20
159.09384
  0
VERTEX
  5
21f
  8
Layer_0
  10
441.06271
  20
159.0726
  0
SEQEND
  0
POLYLINE
  5
221
  8
Layer_0
  62
5
  66
1
  10
0
  20
0
  30
0
  0
VERTEX
  5
221
  8
Layer_0
  10
427.05099
  20
158.54501
  42
0.28252572
  0
VERTEX
  5
222
  8
Layer_0
  10
426.28268
  20
157.84921
  42
0.082811215
  0
VERTEX
  5
223
  8
Layer_0
  10
426.20432
  20
157.33139
  42
0.035637866
  0
VERTEX
  5
224
  8
Layer_0
  10
426.22385
  20
156.39487
  42
0.24017392
  0
VERTEX
  5
225
  8
Layer_0
  10
426.74557
  20
155.56503
  42
0.30712157
  0
VERTEX
  5
226
  8
Layer_0
  10
427.99338
  20
155.6871
  42
0.21147006
  0
VERTEX
  5
227
  8
Layer_0
  10
428.3652
  20
156.66855
  42
0.035636975
  0
VERTEX
  5
228
  8
Layer_0
  10
428.34567
  20
157.60507
  42
0.24246146
  0
VERTEX
  5
229
  8
Layer_0
  10
427.82248
  20
158.43466
  42
0.1736786
  0
VERTEX
  5
22a
  8
Layer_0
  10
427.05099
  20
158.54501
  0
SEQEND
  0
POLYLINE
  5
22c
  8
Layer_0
  62
5
  66
1
  10
0
  20
0
  30
0
  0
VERTEX
  5
22c
  8
Layer_0
  10
439.66769
  20
158.49374
  0
VERTEX
  5
22d
  8
Layer_0
  10
439.66769
  20
157.1683
  0
VERTEX
  5
22e
  8
Layer_0
  10
440.74777
  20
157.1683
  42
0.40569596
  0
VERTEX
  5
22f
  8
Layer_0
  10
441.28439
  20
157.56967
  42
0.092937414
  0
VERTEX
  5
230
  8
Layer_0
  10
441.25754
  20
158.19638
  42
0.33015001
  0
VERTEX
  5
231
  8
Layer_0
  10
440.74777
  20
158.49374
  0
VERTEX
  5
232
  8
Layer_0
  10
439.66769
  20
158.49374
  0
SEQEND
  0
POLYLINE
  5
234
  8
Layer_0
  62
5
  70
1
  66
1
  10
0
  20
0
  30
0
  0
VERTEX
  5
234
  8
Layer_0
  10
422.58176
  20
158.49374
  0
VERTEX
  5
235
  8
Layer_0
  10
422.58176
  20
157.17392
  0
VERTEX
  5
236
  8
Layer_0
  10
423.66183
  20
157.17392
  42
0.40535029
  0
VERTEX
  5
237
  8
Layer_0
  10
424.19846
  20
157.57382
  42
0.093524763
  0
VERTEX
  5
238
  8
Layer_0
  10
424.1716
  20
158.1976
  42
0.3293097
  0
VERTEX
  5
239
  8
Layer_0
  10
423.66183
  20
158.49374
  0
SEQEND
  0
POLYLINE
  5
23b
  8
Layer_0
  62
5
  66
1
  10
0
  20
0
  30
0
  0
VERTEX
  5
23b
  8
Layer_0
  10
341.76114
  20
158.15723
  42
-0.29149061
  0
VERTEX
  5
23c
  8
Layer_0
  10
343.16739
  20
157.12744
  42
-0.20263291
  0
VERTEX
  5
23d
  8
Layer_0
  10
343.08267
  20
154.69482
  42
-0.31175047
  0
VERTEX
  5
23e
  8
Layer_0
  10
341.36221
  20
153.84253
  42
-0.32073436
  0
VERTEX
  5
23f
  8
Layer_0
  10
339.88419
  20
155.06714
  42
-0.18361142
  0
VERTEX
  5
240
  8
Layer_0
  10
340.04019
  20
157.30518
  42
-0.31180256
  0
VERTEX
  5
241
  8
Layer_0
  10
341.76114
  20
158.15723
  0
SEQEND
  0
POLYLINE
  5
243
  8
Layer_0
  62
5
  66
1
  10
0
  20
0
  30
0
  0
VERTEX
  5
243
  8
Layer_0
  10
336.33609
  20
156.33032
  0
VERTEX
  5
244
  8
Layer_0
  10
338.23184
  20
156.33032
  0
VERTEX
  5
245
  8
Layer_0
  10
338.23184
  20
158.09375
  0
VERTEX
  5
246
  8
Layer_0
  10
338.90958
  20
158.09375
  0
VERTEX
  5
247
  8
Layer_0
  10
338.90958
  20
153.90601
  0
VERTEX
  5
248
  8
Layer_0
  10
338.23184
  20
153.90601
  0
VERTEX
  5
249
  8
Layer_0
  10
338.23184
  20
155.73047
  0
VERTEX
  5
24a
  8
Layer_0
  10
336.33609
  20
155.73047
  0
VERTEX
  5
24b
  8
Layer_0
  10
336.33609
  20
153.90601
  0
VERTEX
  5
24c
  8
Layer_0
  10
335.65738
  20
153.90601
  0
VERTEX
  5
24d
  8
Layer_0
  10
335.65738
  20
158.09375
  0
VERTEX
  5
24e
  8
Layer_0
  10
336.33609
  20
158.09375
  0
VERTEX
  5
24f
  8
Layer_0
  10
336.33609
  20
156.33032
  0
SEQEND
  0
POLYLINE
  5
251
  8
Layer_0
  62
5
  66
1
  10
0
  20
0
  30
0
  0
VERTEX
  5
251
  8
Layer_0
  10
344.89078
  20
154.5061
  0
VERTEX
  5
252
  8
Layer_0
  10
346.59439
  20
154.5061
  0
VERTEX
  5
253
  8
Layer_0
  10
346.59439
  20
153.90601
  0
VERTEX
  5
254
  8
Layer_0
  10
344.21207
  20
153.90601
  0
VERTEX
  5
255
  8
Layer_0
  10
344.21207
  20
158.09375
  0
VERTEX
  5
256
  8
Layer_0
  10
344.89078
  20
158.09375
  0
VERTEX
  5
257
  8
Layer_0
  10
344.89078
  20
154.5061
  0
SEQEND
  0
POLYLINE
  5
259
  8
Layer_0
  62
5
  66
1
  10
0
  20
0
  30
0
  0
VERTEX
  5
259
  8
Layer_0
  10
348.96866
  20
158.08569
  42
-0.35436476
  0
VERTEX
  5
25a
  8
Layer_0
  10
350.47159
  20
156.71094
  42
-0.16907503
  0
VERTEX
  5
25b
  8
Layer_0
  10
350.26456
  20
154.72485
  42
-0.28760157
  0
VERTEX
  5
25c
  8
Layer_0
  10
348.77213
  20
153.90601
  0
VERTEX
  5
25d
  8
Layer_0
  10
347.28995
  20
153.90601
  0
VERTEX
  5
25e
  8
Layer_0
  10
347.28995
  20
158.09375
  0
VERTEX
  5
25f
  8
Layer_0
  10
348.77213
  20
158.09375
  0
VERTEX
  5
260
  8
Layer_0
  10
348.96866
  20
158.08569
  0
SEQEND
  0
POLYLINE
  5
262
  8
Layer_0
  62
5
  66
1
  10
0
  20
0
  30
0
  0
VERTEX
  5
262
  8
Layer_0
  10
341.32755
  20
157.54492
  42
0.28270847
  0
VERTEX
  5
263
  8
Layer_0
  10
340.55923
  20
156.84937
  42
0.082843892
  0
VERTEX
  5
264
  8
Layer_0
  10
340.48087
  20
156.3313
  42
0.035637888
  0
VERTEX
  5
265
  8
Layer_0
  10
340.5004
  20
155.39478
  42
0.24016528
  0
VERTEX
  5
266
  8
Layer_0
  10
341.02213
  20
154.56519
  42
0.307492
  0
VERTEX
  5
267
  8
Layer_0
  10
342.26993
  20
154.68726
  42
0.21147223
  0
VERTEX
  5
268
  8
Layer_0
  10
342.64175
  20
155.66846
  42
0.035606279
  0
VERTEX
  5
269
  8
Layer_0
  10
342.62222
  20
156.60522
  42
0.24211203
  0
VERTEX
  5
26a
  8
Layer_0
  10
342.09903
  20
157.43481
  42
0.17333585
  0
VERTEX
  5
26b
  8
Layer_0
  10
341.32755
  20
157.54492
  0
SEQEND
  0
POLYLINE
  5
26d
  8
Layer_0
  62
5
  70
1
  66
1
  10
0
  20
0
  30
0
  0
VERTEX
  5
26d
  8
Layer_0
  10
347.96866
  20
157.4939
  0
VERTEX
  5
26e
  8
Layer_0
  10
347.96866
  20
154.5061
  0
VERTEX
  5
26f
  8
Layer_0
  10
348.77213
  20
154.5061
  42
0.40590552
  0
VERTEX
  5
270
  8
Layer_0
  10
349.79849
  20
155.396
  42
0.043313757
  0
VERTEX
  5
271
  8
Layer_0
  10
349.79849
  20
156.60376
  42
0.40474789
  0
VERTEX
  5
272
  8
Layer_0
  10
348.77213
  20
157.4939
  0
SEQEND
  0
POLYLINE
  5
274
  8
Layer_0
  62
5
  66
1
  10
0
  20
0
  30
0
  0
VERTEX
  5
274
  8
Layer_0
  10
295.62036
  20
158.15862
  0
VERTEX
  5
275
  8
Layer_0
  10
295.83374
  20
158.12785
  42
-0.1813006
  0
VERTEX
  5
276
  8
Layer_0
  10
296.80762
  20
157.52678
  0
VERTEX
  5
277
  8
Layer_0
  10
296.33325
  20
157.10686
  0
VERTEX
  5
278
  8
Layer_0
  10
296.24756
  20
157.20647
  42
0.33602335
  0
VERTEX
  5
279
  8
Layer_0
  10
294.79712
  20
157.42522
  42
0.33670432
  0
VERTEX
  5
27a
  8
Layer_0
  10
294.6394
  20
156.77507
  42
0.22764921
  0
VERTEX
  5
27b
  8
Layer_0
  10
295.10547
  20
156.45403
  42
0.010844638
  0
VERTEX
  5
27c
  8
Layer_0
  10
295.63745
  20
156.33904
  0
VERTEX
  5
27d
  8
Layer_0
  10
295.9314
  20
156.26848
  42
-0.18320404
  0
VERTEX
  5
27e
  8
Layer_0
  10
296.6853
  20
155.77385
  42
-0.38085708
  0
VERTEX
  5
27f
  8
Layer_0
  10
296.34741
  20
154.11345
  42
-0.1977826
  0
VERTEX
  5
280
  8
Layer_0
  10
294.84277
  20
153.88493
  42
-0.16927042
  0
VERTEX
  5
281
  8
Layer_0
  10
293.80103
  20
154.5446
  0
VERTEX
  5
282
  8
Layer_0
  10
294.2688
  20
154.98332
  0
VERTEX
  5
283
  8
Layer_0
  10
294.38257
  20
154.85661
  42
0.31467866
  0
VERTEX
  5
284
  8
Layer_0
  10
295.85864
  20
154.53801
  42
0.36431877
  0
VERTEX
  5
285
  8
Layer_0
  10
296.14136
  20
155.32365
  42
0.24876733
  0
VERTEX
  5
286
  8
Layer_0
  10
295.69214
  20
155.66838
  42
0.029155659
  0
VERTEX
  5
287
  8
Layer_0
  10
295.15088
  20
155.77556
  0
VERTEX
  5
288
  8
Layer_0
  10
294.86401
  20
155.84319
  42
-0.1753486
  0
VERTEX
  5
289
  8
Layer_0
  10
294.09888
  20
156.33488
  42
-0.33695088
  0
VERTEX
  5
28a
  8
Layer_0
  10
294.23657
  20
157.7675
  42
-0.1659696
  0
VERTEX
  5
28b
  8
Layer_0
  10
295.07178
  20
158.14812
  42
-0.0557672
  0
VERTEX
  5
28c
  8
Layer_0
  10
295.62036
  20
158.15862
  0
SEQEND
  0
POLYLINE
  5
28e
  8
Layer_0
  62
5
  66
1
  10
0
  20
0
  30
0
  0
VERTEX
  5
28e
  8
Layer_0
  10
300.3645
  20
157.49675
  0
VERTEX
  5
28f
  8
Layer_0
  10
299.1167
  20
157.49675
  0
VERTEX
  5
290
  8
Layer_0
  10
299.1167
  20
153.9091
  0
VERTEX
  5
291
  8
Layer_0
  10
298.43872
  20
153.9091
  0
VERTEX
  5
292
  8
Layer_0
  10
298.43872
  20
157.49675
  0
VERTEX
  5
293
  8
Layer_0
  10
297.19092
  20
157.49675
  0
VERTEX
  5
294
  8
Layer_0
  10
297.19092
  20
158.09685
  0
VERTEX
  5
295
  8
Layer_0
  10
300.3645
  20
158.09685
  0
VERTEX
  5
296
  8
Layer_0
  10
300.3645
  20
157.49675
  0
SEQEND
  0
POLYLINE
  5
298
  8
Layer_0
  62
5
  66
1
  10
0
  20
0
  30
0
  0
VERTEX
  5
298
  8
Layer_0
  10
303.95776
  20
153.9091
  0
VERTEX
  5
299
  8
Layer_0
  10
303.25
  20
153.9091
  0
VERTEX
  5
29a
  8
Layer_0
  10
302.87231
  20
155.04338
  0
VERTEX
  5
29b
  8
Layer_0
  10
301.30566
  20
155.04338
  0
VERTEX
  5
29c
  8
Layer_0
  10
300.93994
  20
153.9091
  0
VERTEX
  5
29d
  8
Layer_0
  10
300.25
  20
153.9091
  0
VERTEX
  5
29e
  8
Layer_0
  10
301.67773
  20
158.09685
  0
VERTEX
  5
29f
  8
Layer_0
  10
302.53003
  20
158.09685
  0
VERTEX
  5
2a0
  8
Layer_0
  10
303.95776
  20
153.9091
  0
SEQEND
  0
POLYLINE
  5
2a2
  8
Layer_0
  62
5
  66
1
  10
0
  20
0
  30
0
  0
VERTEX
  5
2a2
  8
Layer_0
  10
306.67847
  20
158.07561
  42
-0.34037021
  0
VERTEX
  5
2a3
  8
Layer_0
  10
307.60327
  20
157.11272
  42
-0.19384629
  0
VERTEX
  5
2a4
  8
Layer_0
  10
307.41626
  20
156.09001
  42
-0.1732311
  0
VERTEX
  5
2a5
  8
Layer_0
  10
306.80688
  20
155.67326
  0
VERTEX
  5
2a6
  8
Layer_0
  10
307.71338
  20
153.9091
  0
VERTEX
  5
2a7
  8
Layer_0
  10
306.95679
  20
153.9091
  0
VERTEX
  5
2a8
  8
Layer_0
  10
306.11694
  20
155.60124
  0
VERTEX
  5
2a9
  8
Layer_0
  10
305.28345
  20
155.60124
  0
VERTEX
  5
2aa
  8
Layer_0
  10
305.28345
  20
153.9091
  0
VERTEX
  5
2ab
  8
Layer_0
  10
304.60474
  20
153.9091
  0
VERTEX
  5
2ac
  8
Layer_0
  10
304.60474
  20
158.09685
  0
VERTEX
  5
2ad
  8
Layer_0
  10
306.41138
  20
158.09685
  0
VERTEX
  5
2ae
  8
Layer_0
  10
306.67847
  20
158.07561
  0
SEQEND
  0
POLYLINE
  5
2b0
  8
Layer_0
  62
5
  66
1
  10
0
  20
0
  30
0
  0
VERTEX
  5
2b0
  8
Layer_0
  10
311.19165
  20
157.49675
  0
VERTEX
  5
2b1
  8
Layer_0
  10
309.94385
  20
157.49675
  0
VERTEX
  5
2b2
  8
Layer_0
  10
309.94385
  20
153.9091
  0
VERTEX
  5
2b3
  8
Layer_0
  10
309.26587
  20
153.9091
  0
VERTEX
  5
2b4
  8
Layer_0
  10
309.26587
  20
157.49675
  0
VERTEX
  5
2b5
  8
Layer_0
  10
308.01807
  20
157.49675
  0
VERTEX
  5
2b6
  8
Layer_0
  10
308.01807
  20
158.09685
  0
VERTEX
  5
2b7
  8
Layer_0
  10
311.19165
  20
158.09685
  0
VERTEX
  5
2b8
  8
Layer_0
  10
311.19165
  20
157.49675
  0
SEQEND
  0
POLYLINE
  5
2ba
  8
Layer_0
  62
5
  66
1
  10
0
  20
0
  30
0
  0
VERTEX
  5
2ba
  8
Layer_0
  10
302.07446
  20
157.47331
  0
VERTEX
  5
2bb
  8
Layer_0
  10
301.46777
  20
155.62566
  0
VERTEX
  5
2bc
  8
Layer_0
  10
302.70435
  20
155.62566
  0
VERTEX
  5
2bd
  8
Layer_0
  10
302.10449
  20
157.47331
  0
VERTEX
  5
2be
  8
Layer_0
  10
302.07446
  20
157.47331
  0
SEQEND
  0
POLYLINE
  5
2c0
  8
Layer_0
  62
5
  70
1
  66
1
  10
0
  20
0
  30
0
  0
VERTEX
  5
2c0
  8
Layer_0
  10
305.28345
  20
157.49675
  0
VERTEX
  5
2c1
  8
Layer_0
  10
305.28345
  20
156.17131
  0
VERTEX
  5
2c2
  8
Layer_0
  10
306.36353
  20
156.17131
  42
0.40524563
  0
VERTEX
  5
2c3
  8
Layer_0
  10
306.90015
  20
156.57268
  42
0.093501149
  0
VERTEX
  5
2c4
  8
Layer_0
  10
306.87305
  20
157.19939
  42
0.33017992
  0
VERTEX
  5
2c5
  8
Layer_0
  10
306.36353
  20
157.49675
  0
SEQEND
  0
POLYLINE
  5
2c7
  8
Layer_0
  62
5
  66
1
  10
0
  20
0
  30
0
  0
VERTEX
  5
2c7
  8
Layer_0
  10
302.15909
  20
201.4191
  0
VERTEX
  5
2c8
  8
Layer_0
  10
301.45132
  20
201.4191
  0
VERTEX
  5
2c9
  8
Layer_0
  10
301.07339
  20
202.55338
  0
VERTEX
  5
2ca
  8
Layer_0
  10
299.50674
  20
202.55338
  0
VERTEX
  5
2cb
  8
Layer_0
  10
299.14127
  20
201.4191
  0
VERTEX
  5
2cc
  8
Layer_0
  10
298.45132
  20
201.4191
  0
VERTEX
  5
2cd
  8
Layer_0
  10
299.87906
  20
205.60684
  0
VERTEX
  5
2ce
  8
Layer_0
  10
300.73111
  20
205.60684
  0
VERTEX
  5
2cf
  8
Layer_0
  10
302.15909
  20
201.4191
  0
SEQEND
  0
POLYLINE
  5
2d1
  8
Layer_0
  62
5
  66
1
  10
0
  20
0
  30
0
  0
VERTEX
  5
2d1
  8
Layer_0
  10
304.45035
  20
205.05557
  0
VERTEX
  5
2d2
  8
Layer_0
  10
303.87466
  20
205.05557
  0
VERTEX
  5
2d3
  8
Layer_0
  10
303.87466
  20
201.9711
  0
VERTEX
  5
2d4
  8
Layer_0
  10
304.45035
  20
201.9711
  0
VERTEX
  5
2d5
  8
Layer_0
  10
304.45035
  20
201.4191
  0
VERTEX
  5
2d6
  8
Layer_0
  10
302.62589
  20
201.4191
  0
VERTEX
  5
2d7
  8
Layer_0
  10
302.62589
  20
201.9711
  0
VERTEX
  5
2d8
  8
Layer_0
  10
303.19595
  20
201.9711
  0
VERTEX
  5
2d9
  8
Layer_0
  10
303.19595
  20
205.05557
  0
VERTEX
  5
2da
  8
Layer_0
  10
302.62589
  20
205.05557
  0
VERTEX
  5
2db
  8
Layer_0
  10
302.62589
  20
205.60684
  0
VERTEX
  5
2dc
  8
Layer_0
  10
304.45035
  20
205.60684
  0
VERTEX
  5
2dd
  8
Layer_0
  10
304.45035
  20
205.05557
  0
SEQEND
  0
POLYLINE
  5
2df
  8
Layer_0
  62
5
  66
1
  10
0
  20
0
  30
0
  0
VERTEX
  5
2df
  8
Layer_0
  10
307.37515
  20
205.5856
  42
-0.34065664
  0
VERTEX
  5
2e0
  8
Layer_0
  10
308.29996
  20
204.62271
  42
-0.19359335
  0
VERTEX
  5
2e1
  8
Layer_0
  10
308.11319
  20
203.60001
  42
-0.17282541
  0
VERTEX
  5
2e2
  8
Layer_0
  10
307.50381
  20
203.18326
  0
VERTEX
  5
2e3
  8
Layer_0
  10
308.41031
  20
201.4191
  0
VERTEX
  5
2e4
  8
Layer_0
  10
307.65372
  20
201.4191
  0
VERTEX
  5
2e5
  8
Layer_0
  10
306.81363
  20
203.11124
  0
VERTEX
  5
2e6
  8
Layer_0
  10
305.98038
  20
203.11124
  0
VERTEX
  5
2e7
  8
Layer_0
  10
305.98038
  20
201.4191
  0
VERTEX
  5
2e8
  8
Layer_0
  10
305.30142
  20
201.4191
  0
VERTEX
  5
2e9
  8
Layer_0
  10
305.30142
  20
205.60684
  0
VERTEX
  5
2ea
  8
Layer_0
  10
307.10806
  20
205.60684
  0
VERTEX
  5
2eb
  8
Layer_0
  10
307.37515
  20
205.5856
  0
SEQEND
  0
POLYLINE
  5
2ed
  8
Layer_0
  62
5
  66
1
  10
0
  20
0
  30
0
  0
VERTEX
  5
2ed
  8
Layer_0
  10
300.27554
  20
204.98331
  0
VERTEX
  5
2ee
  8
Layer_0
  10
299.6691
  20
203.13565
  0
VERTEX
  5
2ef
  8
Layer_0
  10
300.90567
  20
203.13565
  0
VERTEX
  5
2f0
  8
Layer_0
  10
300.30557
  20
204.98331
  0
VERTEX
  5
2f1
  8
Layer_0
  10
300.27554
  20
204.98331
  0
SEQEND
  0
POLYLINE
  5
2f3
  8
Layer_0
  62
5
  70
1
  66
1
  10
0
  20
0
  30
0
  0
VERTEX
  5
2f3
  8
Layer_0
  10
305.98038
  20
205.00674
  0
VERTEX
  5
2f4
  8
Layer_0
  10
305.98038
  20
203.6813
  0
VERTEX
  5
2f5
  8
Layer_0
  10
307.06021
  20
203.6813
  42
0.40577713
  0
VERTEX
  5
2f6
  8
Layer_0
  10
307.59683
  20
204.08267
  42
0.092939155
  0
VERTEX
  5
2f7
  8
Layer_0
  10
307.56998
  20
204.70938
  42
0.33025582
  0
VERTEX
  5
2f8
  8
Layer_0
  10
307.06021
  20
205.00674
  0
SEQEND
  0
POLYLINE
  5
2fa
  8
Layer_0
  62
5
  66
1
  10
0
  20
0
  30
0
  0
VERTEX
  5
2fa
  8
Layer_0
  10
341.04333
  20
206.15707
  0
VERTEX
  5
2fb
  8
Layer_0
  10
341.23303
  20
206.13071
  42
-0.29014033
  0
VERTEX
  5
2fc
  8
Layer_0
  10
342.52063
  20
204.9332
  42
-0.18340879
  0
VERTEX
  5
2fd
  8
Layer_0
  10
342.36487
  20
202.69467
  42
-0.31168309
  0
VERTEX
  5
2fe
  8
Layer_0
  10
340.64441
  20
201.84262
  42
-0.32080441
  0
VERTEX
  5
2ff
  8
Layer_0
  10
339.16638
  20
203.06699
  42
-0.18363362
  0
VERTEX
  5
300
  8
Layer_0
  10
339.32239
  20
205.30502
  42
-0.31201002
  0
VERTEX
  5
301
  8
Layer_0
  10
341.04333
  20
206.15707
  0
SEQEND
  0
POLYLINE
  5
303
  8
Layer_0
  62
5
  66
1
  10
0
  20
0
  30
0
  0
VERTEX
  5
303
  8
Layer_0
  10
335.61829
  20
204.33041
  0
VERTEX
  5
304
  8
Layer_0
  10
337.51404
  20
204.33041
  0
VERTEX
  5
305
  8
Layer_0
  10
337.51404
  20
206.09384
  0
VERTEX
  5
306
  8
Layer_0
  10
338.19177
  20
206.09384
  0
VERTEX
  5
307
  8
Layer_0
  10
338.19177
  20
201.9061
  0
VERTEX
  5
308
  8
Layer_0
  10
337.51404
  20
201.9061
  0
VERTEX
  5
309
  8
Layer_0
  10
337.51404
  20
203.73032
  0
VERTEX
  5
30a
  8
Layer_0
  10
335.61829
  20
203.73032
  0
VERTEX
  5
30b
  8
Layer_0
  10
335.61829
  20
201.9061
  0
VERTEX
  5
30c
  8
Layer_0
  10
334.93958
  20
201.9061
  0
VERTEX
  5
30d
  8
Layer_0
  10
334.93958
  20
206.09384
  0
VERTEX
  5
30e
  8
Layer_0
  10
335.61829
  20
206.09384
  0
VERTEX
  5
30f
  8
Layer_0
  10
335.61829
  20
204.33041
  0
SEQEND
  0
POLYLINE
  5
311
  8
Layer_0
  62
5
  66
1
  10
0
  20
0
  30
0
  0
VERTEX
  5
311
  8
Layer_0
  10
345.42102
  20
203.96371
  0
VERTEX
  5
312
  8
Layer_0
  10
345.45642
  20
203.96371
  0
VERTEX
  5
313
  8
Layer_0
  10
346.57874
  20
206.09384
  0
VERTEX
  5
314
  8
Layer_0
  10
347.34656
  20
206.09384
  0
VERTEX
  5
315
  8
Layer_0
  10
347.34656
  20
201.9061
  0
VERTEX
  5
316
  8
Layer_0
  10
346.69861
  20
201.9061
  0
VERTEX
  5
317
  8
Layer_0
  10
346.69861
  20
205.11044
  0
VERTEX
  5
318
  8
Layer_0
  10
346.66882
  20
205.11044
  0
VERTEX
  5
319
  8
Layer_0
  10
346.33875
  20
204.43246
  0
VERTEX
  5
31a
  8
Layer_0
  10
345.42102
  20
202.75815
  0
VERTEX
  5
31b
  8
Layer_0
  10
344.50305
  20
204.43246
  0
VERTEX
  5
31c
  8
Layer_0
  10
344.17297
  20
205.11044
  0
VERTEX
  5
31d
  8
Layer_0
  10
344.14319
  20
205.11044
  0
VERTEX
  5
31e
  8
Layer_0
  10
344.14319
  20
201.9061
  0
VERTEX
  5
31f
  8
Layer_0
  10
343.49426
  20
201.9061
  0
VERTEX
  5
320
  8
Layer_0
  10
343.49426
  20
206.09384
  0
VERTEX
  5
321
  8
Layer_0
  10
344.29871
  20
206.09384
  0
VERTEX
  5
322
  8
Layer_0
  10
345.42102
  20
203.96371
  0
SEQEND
  0
POLYLINE
  5
324
  8
Layer_0
  62
5
  66
1
  10
0
  20
0
  30
0
  0
VERTEX
  5
324
  8
Layer_0
  10
351.05994
  20
205.49374
  0
VERTEX
  5
325
  8
Layer_0
  10
349.05652
  20
205.49374
  0
VERTEX
  5
326
  8
Layer_0
  10
349.05652
  20
204.33041
  0
VERTEX
  5
327
  8
Layer_0
  10
350.87439
  20
204.33041
  0
VERTEX
  5
328
  8
Layer_0
  10
350.87439
  20
203.73032
  0
VERTEX
  5
329
  8
Layer_0
  10
349.05652
  20
203.73032
  0
VERTEX
  5
32a
  8
Layer_0
  10
349.05652
  20
202.50595
  0
VERTEX
  5
32b
  8
Layer_0
  10
351.05994
  20
202.50595
  0
VERTEX
  5
32c
  8
Layer_0
  10
351.05994
  20
201.9061
  0
VERTEX
  5
32d
  8
Layer_0
  10
348.37781
  20
201.9061
  0
VERTEX
  5
32e
  8
Layer_0
  10
348.37781
  20
206.09384
  0
VERTEX
  5
32f
  8
Layer_0
  10
351.05994
  20
206.09384
  0
VERTEX
  5
330
  8
Layer_0
  10
351.05994
  20
205.49374
  0
SEQEND
  0
POLYLINE
  5
332
  8
Layer_0
  62
5
  70
1
  66
1
  10
0
  20
0
  30
0
  0
VERTEX
  5
332
  8
Layer_0
  10
340.60974
  20
205.54501
  42
0.28254288
  0
VERTEX
  5
333
  8
Layer_0
  10
339.84143
  20
204.84921
  42
0.082810804
  0
VERTEX
  5
334
  8
Layer_0
  10
339.76306
  20
204.33139
  42
0.035638351
  0
VERTEX
  5
335
  8
Layer_0
  10
339.78259
  20
203.39487
  42
0.2401725
  0
VERTEX
  5
336
  8
Layer_0
  10
340.30432
  20
202.56503
  42
0.30712142
  0
VERTEX
  5
337
  8
Layer_0
  10
341.55212
  20
202.6871
  42
0.21146908
  0
VERTEX
  5
338
  8
Layer_0
  10
341.92395
  20
203.66855
  42
0.035637751
  0
VERTEX
  5
339
  8
Layer_0
  10
341.90442
  20
204.60507
  42
0.24246179
  0
VERTEX
  5
33a
  8
Layer_0
  10
341.38123
  20
205.43466
  42
0.17364264
  0
SEQEND
  0
POLYLINE
  5
33c
  8
Layer_0
  62
5
  66
1
  10
0
  20
0
  30
0
  0
VERTEX
  5
33c
  8
Layer_0
  10
385.20819
  20
159.15707
  0
VERTEX
  5
33d
  8
Layer_0
  10
385.39789
  20
159.13071
  42
-0.2900141
  0
VERTEX
  5
33e
  8
Layer_0
  10
386.68573
  20
157.9332
  42
-0.18352429
  0
VERTEX
  5
33f
  8
Layer_0
  10
386.52972
  20
155.69467
  42
-0.31169578
  0
VERTEX
  5
340
  8
Layer_0
  10
384.80927
  20
154.84262
  42
-0.32077962
  0
VERTEX
  5
341
  8
Layer_0
  10
383.33124
  20
156.06699
  42
-0.18363324
  0
VERTEX
  5
342
  8
Layer_0
  10
383.48724
  20
158.30502
  42
-0.311985
  0
VERTEX
  5
343
  8
Layer_0
  10
385.20819
  20
159.15707
  0
SEQEND
  0
POLYLINE
  5
345
  8
Layer_0
  62
5
  66
1
  10
0
  20
0
  30
0
  0
VERTEX
  5
345
  8
Layer_0
  10
389.47943
  20
159.15707
  42
-0.32058659
  0
VERTEX
  5
346
  8
Layer_0
  10
390.95697
  20
157.9332
  42
-0.18352434
  0
VERTEX
  5
347
  8
Layer_0
  10
390.80096
  20
155.69467
  42
-0.31176256
  0
VERTEX
  5
348
  8
Layer_0
  10
389.08051
  20
154.84262
  42
-0.32077475
  0
VERTEX
  5
349
  8
Layer_0
  10
387.60248
  20
156.06699
  42
-0.18363299
  0
VERTEX
  5
34a
  8
Layer_0
  10
387.75848
  20
158.30502
  42
-0.31198013
  0
VERTEX
  5
34b
  8
Layer_0
  10
389.47943
  20
159.15707
  0
SEQEND
  0
POLYLINE
  5
34d
  8
Layer_0
  62
5
  66
1
  10
0
  20
0
  30
0
  0
VERTEX
  5
34d
  8
Layer_0
  10
382.86102
  20
158.49374
  0
VERTEX
  5
34e
  8
Layer_0
  10
381.61322
  20
158.49374
  0
VERTEX
  5
34f
  8
Layer_0
  10
381.61322
  20
154.9061
  0
VERTEX
  5
350
  8
Layer_0
  10
380.93549
  20
154.9061
  0
VERTEX
  5
351
  8
Layer_0
  10
380.93549
  20
158.49374
  0
VERTEX
  5
352
  8
Layer_0
  10
379.68768
  20
158.49374
  0
VERTEX
  5
353
  8
Layer_0
  10
379.68768
  20
159.09384
  0
VERTEX
  5
354
  8
Layer_0
  10
382.86102
  20
159.09384
  0
VERTEX
  5
355
  8
Layer_0
  10
382.86102
  20
158.49374
  0
SEQEND
  0
POLYLINE
  5
357
  8
Layer_0
  62
5
  66
1
  10
0
  20
0
  30
0
  0
VERTEX
  5
357
  8
Layer_0
  10
392.60931
  20
155.50595
  0
VERTEX
  5
358
  8
Layer_0
  10
394.31268
  20
155.50595
  0
VERTEX
  5
359
  8
Layer_0
  10
394.31268
  20
154.9061
  0
VERTEX
  5
35a
  8
Layer_0
  10
391.9306
  20
154.9061
  0
VERTEX
  5
35b
  8
Layer_0
  10
391.9306
  20
159.09384
  0
VERTEX
  5
35c
  8
Layer_0
  10
392.60931
  20
159.09384
  0
VERTEX
  5
35d
  8
Layer_0
  10
392.60931
  20
155.50595
  0
SEQEND
  0
POLYLINE
  5
35f
  8
Layer_0
  62
5
  66
1
  10
0
  20
0
  30
0
  0
VERTEX
  5
35f
  8
Layer_0
  10
384.7746
  20
158.54501
  42
0.28246719
  0
VERTEX
  5
360
  8
Layer_0
  10
384.00629
  20
157.84921
  42
0.081889182
  0
VERTEX
  5
361
  8
Layer_0
  10
383.92792
  20
157.33139
  42
0.036081492
  0
VERTEX
  5
362
  8
Layer_0
  10
383.94769
  20
156.39487
  42
0.24004011
  0
VERTEX
  5
363
  8
Layer_0
  10
384.46918
  20
155.56503
  42
0.30718179
  0
VERTEX
  5
364
  8
Layer_0
  10
385.71698
  20
155.6871
  42
0.21122037
  0
VERTEX
  5
365
  8
Layer_0
  10
386.08905
  20
156.66855
  42
0.036080892
  0
VERTEX
  5
366
  8
Layer_0
  10
386.06927
  20
157.60507
  42
0.24246179
  0
VERTEX
  5
367
  8
Layer_0
  10
385.54608
  20
158.43466
  42
0.17378391
  0
VERTEX
  5
368
  8
Layer_0
  10
384.7746
  20
158.54501
  0
SEQEND
  0
POLYLINE
  5
36a
  8
Layer_0
  62
5
  70
1
  66
1
  10
0
  20
0
  30
0
  0
VERTEX
  5
36a
  8
Layer_0
  10
389.04584
  20
158.54501
  0
VERTEX
  5
36b
  8
Layer_0
  10
388.83588
  20
158.48154
  42
0.22231192
  0
VERTEX
  5
36c
  8
Layer_0
  10
388.27753
  20
157.84921
  42
0.081889177
  0
VERTEX
  5
36d
  8
Layer_0
  10
388.19916
  20
157.33139
  42
0.036081458
  0
VERTEX
  5
36e
  8
Layer_0
  10
388.21893
  20
156.39487
  42
0.24004055
  0
VERTEX
  5
36f
  8
Layer_0
  10
388.74042
  20
155.56503
  42
0.30720018
  0
VERTEX
  5
370
  8
Layer_0
  10
389.98822
  20
155.6871
  42
0.21122004
  0
VERTEX
  5
371
  8
Layer_0
  10
390.36029
  20
156.66855
  42
0.036082372
  0
VERTEX
  5
372
  8
Layer_0
  10
390.34052
  20
157.60507
  42
0.24249297
  0
VERTEX
  5
373
  8
Layer_0
  10
389.81732
  20
158.43466
  42
0.17378365
  0
SEQEND
  0
POLYLINE
  5
375
  8
Layer_0
  62
5
  66
1
  10
0
  20
0
  30
0
  0
VERTEX
  5
375
  8
Layer_0
  10
389.12527
  20
188.15112
  42
-0.28054322
  0
VERTEX
  5
376
  8
Layer_0
  10
390.35745
  20
187.22388
  0
VERTEX
  5
377
  8
Layer_0
  10
389.78738
  20
186.9126
  0
VERTEX
  5
378
  8
Layer_0
  10
389.7261
  20
187.05493
  42
0.30691732
  0
VERTEX
  5
379
  8
Layer_0
  10
388.86307
  20
187.56592
  42
0.35643904
  0
VERTEX
  5
37a
  8
Layer_0
  10
387.89432
  20
186.84009
  42
0.07306127
  0
VERTEX
  5
37b
  8
Layer_0
  10
387.82523
  20
186.31909
  42
0.031358415
  0
VERTEX
  5
37c
  8
Layer_0
  10
387.84256
  20
185.40454
  42
0.2031355
  0
VERTEX
  5
37d
  8
Layer_0
  10
388.25247
  20
184.62012
  42
0.36813647
  0
VERTEX
  5
37e
  8
Layer_0
  10
389.58914
  20
184.7334
  42
0.097206977
  0
VERTEX
  5
37f
  8
Layer_0
  10
389.82962
  20
185.13037
  0
VERTEX
  5
380
  8
Layer_0
  10
390.37527
  20
184.80029
  42
-0.31301924
  0
VERTEX
  5
381
  8
Layer_0
  10
388.86307
  20
183.83374
  42
-0.36008323
  0
VERTEX
  5
382
  8
Layer_0
  10
387.2222
  20
185.06909
  42
-0.17126038
  0
VERTEX
  5
383
  8
Layer_0
  10
387.3721
  20
187.30103
  42
-0.29724544
  0
VERTEX
  5
384
  8
Layer_0
  10
388.86307
  20
188.16602
  0
VERTEX
  5
385
  8
Layer_0
  10
389.12527
  20
188.15112
  0
SEQEND
  0
POLYLINE
  5
387
  8
Layer_0
  62
5
  66
1
  10
0
  20
0
  30
0
  0
VERTEX
  5
387
  8
Layer_0
  10
381.66531
  20
188.07544
  42
-0.1012778
  0
VERTEX
  5
388
  8
Layer_0
  10
382.07498
  20
187.92847
  42
-0.26590261
  0
VERTEX
  5
389
  8
Layer_0
  10
382.53494
  20
187.01392
  42
-0.25893545
  0
VERTEX
  5
38a
  8
Layer_0
  10
382.19095
  20
186.25391
  42
-0.11365061
  0
VERTEX
  5
38b
  8
Layer_0
  10
381.80838
  20
186.12598
  0
VERTEX
  5
38c
  8
Layer_0
  10
381.80838
  20
186.09033
  0
VERTEX
  5
38d
  8
Layer_0
  10
381.94144
  20
186.07202
  42
-0.36939357
  0
VERTEX
  5
38e
  8
Layer_0
  10
382.68484
  20
185.11157
  42
-0.29376414
  0
VERTEX
  5
38f
  8
Layer_0
  10
382.03665
  20
183.99878
  42
-0.11101558
  0
VERTEX
  5
390
  8
Layer_0
  10
381.60477
  20
183.90601
  0
VERTEX
  5
391
  8
Layer_0
  10
379.564
  20
183.90601
  0
VERTEX
  5
392
  8
Layer_0
  10
379.564
  20
188.09375
  0
VERTEX
  5
393
  8
Layer_0
  10
381.41824
  20
188.09375
  0
VERTEX
  5
394
  8
Layer_0
  10
381.66531
  20
188.07544
  0
SEQEND
  0
POLYLINE
  5
396
  8
Layer_0
  62
5
  66
1
  10
0
  20
0
  30
0
  0
VERTEX
  5
396
  8
Layer_0
  10
386.76956
  20
183.90601
  0
VERTEX
  5
397
  8
Layer_0
  10
386.0618
  20
183.90601
  0
VERTEX
  5
398
  8
Layer_0
  10
385.68387
  20
185.04028
  0
VERTEX
  5
399
  8
Layer_0
  10
384.11746
  20
185.04028
  0
VERTEX
  5
39a
  8
Layer_0
  10
383.75174
  20
183.90601
  0
VERTEX
  5
39b
  8
Layer_0
  10
383.0618
  20
183.90601
  0
VERTEX
  5
39c
  8
Layer_0
  10
384.48953
  20
188.09375
  0
VERTEX
  5
39d
  8
Layer_0
  10
385.34183
  20
188.09375
  0
VERTEX
  5
39e
  8
Layer_0
  10
386.76956
  20
183.90601
  0
SEQEND
  0
POLYLINE
  5
3a0
  8
Layer_0
  62
5
  66
1
  10
0
  20
0
  30
0
  0
VERTEX
  5
3a0
  8
Layer_0
  10
391.77298
  20
185.97046
  0
VERTEX
  5
3a1
  8
Layer_0
  10
391.79642
  20
185.97046
  0
VERTEX
  5
3a2
  8
Layer_0
  10
392.39651
  20
186.73267
  0
VERTEX
  5
3a3
  8
Layer_0
  10
393.52518
  20
188.09375
  0
VERTEX
  5
3a4
  8
Layer_0
  10
394.31644
  20
188.09375
  0
VERTEX
  5
3a5
  8
Layer_0
  10
392.82303
  20
186.33032
  0
VERTEX
  5
3a6
  8
Layer_0
  10
394.43655
  20
183.90601
  0
VERTEX
  5
3a7
  8
Layer_0
  10
393.62088
  20
183.90601
  0
VERTEX
  5
3a8
  8
Layer_0
  10
392.34866
  20
185.86255
  0
VERTEX
  5
3a9
  8
Layer_0
  10
391.77298
  20
185.20166
  0
VERTEX
  5
3aa
  8
Layer_0
  10
391.77298
  20
183.90601
  0
VERTEX
  5
3ab
  8
Layer_0
  10
391.09427
  20
183.90601
  0
VERTEX
  5
3ac
  8
Layer_0
  10
391.09427
  20
188.09375
  0
VERTEX
  5
3ad
  8
Layer_0
  10
391.77298
  20
188.09375
  0
VERTEX
  5
3ae
  8
Layer_0
  10
391.77298
  20
185.97046
  0
SEQEND
  0
POLYLINE
  5
3b0
  8
Layer_0
  62
5
  66
1
  10
0
  20
0
  30
0
  0
VERTEX
  5
3b0
  8
Layer_0
  10
380.24271
  20
185.7605
  0
VERTEX
  5
3b1
  8
Layer_0
  10
380.24271
  20
184.48828
  0
VERTEX
  5
3b2
  8
Layer_0
  10
381.40604
  20
184.48828
  42
0.40325474
  0
VERTEX
  5
3b3
  8
Layer_0
  10
381.96121
  20
184.90015
  42
0.098072681
  0
VERTEX
  5
3b4
  8
Layer_0
  10
381.93289
  20
185.45386
  42
0.32738772
  0
VERTEX
  5
3b5
  8
Layer_0
  10
381.40604
  20
185.7605
  0
VERTEX
  5
3b6
  8
Layer_0
  10
380.24271
  20
185.7605
  0
SEQEND
  0
POLYLINE
  5
3b8
  8
Layer_0
  62
5
  66
1
  10
0
  20
0
  30
0
  0
VERTEX
  5
3b8
  8
Layer_0
  10
384.88602
  20
187.47046
  0
VERTEX
  5
3b9
  8
Layer_0
  10
384.27957
  20
185.62256
  0
VERTEX
  5
3ba
  8
Layer_0
  10
385.51614
  20
185.62256
  0
VERTEX
  5
3bb
  8
Layer_0
  10
384.91605
  20
187.47046
  0
VERTEX
  5
3bc
  8
Layer_0
  10
384.88602
  20
187.47046
  0
SEQEND
  0
POLYLINE
  5
3be
  8
Layer_0
  62
5
  70
1
  66
1
  10
0
  20
0
  30
0
  0
VERTEX
  5
3be
  8
Layer_0
  10
380.24271
  20
187.51245
  0
VERTEX
  5
3bf
  8
Layer_0
  10
380.24271
  20
186.32373
  0
VERTEX
  5
3c0
  8
Layer_0
  10
381.29276
  20
186.32373
  42
0.40738962
  0
VERTEX
  5
3c1
  8
Layer_0
  10
381.8118
  20
186.70947
  42
0.096778846
  0
VERTEX
  5
3c2
  8
Layer_0
  10
381.78616
  20
187.22607
  42
0.33180394
  0
VERTEX
  5
3c3
  8
Layer_0
  10
381.29276
  20
187.51245
  0
SEQEND
  0
POLYLINE
  5
3c5
  8
Layer_0
  62
5
  66
1
  10
0
  20
0
  30
0
  0
VERTEX
  5
3c5
  8
Layer_0
  10
385.35797
  20
215.15448
  0
VERTEX
  5
3c6
  8
Layer_0
  10
385.60748
  20
215.10785
  42
-0.22315533
  0
VERTEX
  5
3c7
  8
Layer_0
  10
386.64679
  20
214.23065
  0
VERTEX
  5
3c8
  8
Layer_0
  10
386.09454
  20
213.90717
  0
VERTEX
  5
3c9
  8
Layer_0
  10
386.02643
  20
214.04779
  42
0.28588623
  0
VERTEX
  5
3ca
  8
Layer_0
  10
385.08673
  20
214.57001
  42
0.40116628
  0
VERTEX
  5
3cb
  8
Layer_0
  10
384.00128
  20
213.62299
  42
0.043825964
  0
VERTEX
  5
3cc
  8
Layer_0
  10
384.00128
  20
212.38544
  42
0.40200841
  0
VERTEX
  5
3cd
  8
Layer_0
  10
385.08673
  20
211.43793
  42
0.21630614
  0
VERTEX
  5
3ce
  8
Layer_0
  10
385.90118
  20
211.75165
  42
0.18983368
  0
VERTEX
  5
3cf
  8
Layer_0
  10
386.07672
  20
212.2348
  0
VERTEX
  5
3d0
  8
Layer_0
  10
386.07672
  20
212.56
  0
VERTEX
  5
3d1
  8
Layer_0
  10
385.2132
  20
212.56
  0
VERTEX
  5
3d2
  8
Layer_0
  10
385.2132
  20
213.14227
  0
VERTEX
  5
3d3
  8
Layer_0
  10
386.73102
  20
213.14227
  0
VERTEX
  5
3d4
  8
Layer_0
  10
386.73102
  20
210.9101
  0
VERTEX
  5
3d5
  8
Layer_0
  10
386.13678
  20
210.9101
  0
VERTEX
  5
3d6
  8
Layer_0
  10
386.13678
  20
211.53998
  0
VERTEX
  5
3d7
  8
Layer_0
  10
386.11334
  20
211.53998
  0
VERTEX
  5
3d8
  8
Layer_0
  10
386.06598
  20
211.39496
  42
-0.26765542
  0
VERTEX
  5
3d9
  8
Layer_0
  10
385.21271
  20
210.85028
  42
-0.38399439
  0
VERTEX
  5
3da
  8
Layer_0
  10
383.38556
  20
212.07098
  42
-0.18663887
  0
VERTEX
  5
3db
  8
Layer_0
  10
383.54816
  20
214.30414
  42
-0.28786059
  0
VERTEX
  5
3dc
  8
Layer_0
  10
385.08673
  20
215.1701
  0
VERTEX
  5
3dd
  8
Layer_0
  10
385.35797
  20
215.15448
  0
SEQEND
  0
POLYLINE
  5
3df
  8
Layer_0
  62
5
  66
1
  10
0
  20
0
  30
0
  0
VERTEX
  5
3df
  8
Layer_0
  10
396.8941
  20
215.15961
  42
-0.2133513
  0
VERTEX
  5
3e0
  8
Layer_0
  10
398.08136
  20
214.52777
  0
VERTEX
  5
3e1
  8
Layer_0
  10
397.60699
  20
214.10785
  0
VERTEX
  5
3e2
  8
Layer_0
  10
397.52155
  20
214.20746
  42
0.33596061
  0
VERTEX
  5
3e3
  8
Layer_0
  10
396.07086
  20
214.42621
  42
0.33607205
  0
VERTEX
  5
3e4
  8
Layer_0
  10
395.91315
  20
213.77606
  42
0.22732199
  0
VERTEX
  5
3e5
  8
Layer_0
  10
396.37946
  20
213.45502
  42
0.010844598
  0
VERTEX
  5
3e6
  8
Layer_0
  10
396.91144
  20
213.34003
  0
VERTEX
  5
3e7
  8
Layer_0
  10
397.20514
  20
213.26947
  42
-0.18330895
  0
VERTEX
  5
3e8
  8
Layer_0
  10
397.95929
  20
212.77484
  42
-0.38078563
  0
VERTEX
  5
3e9
  8
Layer_0
  10
397.6214
  20
211.11444
  42
-0.19772554
  0
VERTEX
  5
3ea
  8
Layer_0
  10
396.11676
  20
210.88593
  42
-0.16916143
  0
VERTEX
  5
3eb
  8
Layer_0
  10
395.07477
  20
211.54559
  0
VERTEX
  5
3ec
  8
Layer_0
  10
395.54279
  20
211.98431
  0
VERTEX
  5
3ed
  8
Layer_0
  10
395.65656
  20
211.8576
  42
0.31474332
  0
VERTEX
  5
3ee
  8
Layer_0
  10
397.13263
  20
211.539
  42
0.36431836
  0
VERTEX
  5
3ef
  8
Layer_0
  10
397.41534
  20
212.32465
  42
0.24859673
  0
VERTEX
  5
3f0
  8
Layer_0
  10
396.96613
  20
212.66937
  42
0.029157117
  0
VERTEX
  5
3f1
  8
Layer_0
  10
396.42487
  20
212.77655
  0
VERTEX
  5
3f2
  8
Layer_0
  10
396.138
  20
212.84418
  42
-0.17512821
  0
VERTEX
  5
3f3
  8
Layer_0
  10
395.37262
  20
213.33588
  42
-0.33682528
  0
VERTEX
  5
3f4
  8
Layer_0
  10
395.51056
  20
214.76849
  42
-0.16601813
  0
VERTEX
  5
3f5
  8
Layer_0
  10
396.34576
  20
215.14911
  42
-0.05579072
  0
VERTEX
  5
3f6
  8
Layer_0
  10
396.8941
  20
215.15961
  0
SEQEND
  0
POLYLINE
  5
3f8
  8
Layer_0
  62
5
  66
1
  10
0
  20
0
  30
0
  0
VERTEX
  5
3f8
  8
Layer_0
  10
378.54767
  20
211.50995
  0
VERTEX
  5
3f9
  8
Layer_0
  10
380.25104
  20
211.50995
  0
VERTEX
  5
3fa
  8
Layer_0
  10
380.25104
  20
210.9101
  0
VERTEX
  5
3fb
  8
Layer_0
  10
377.86896
  20
210.9101
  0
VERTEX
  5
3fc
  8
Layer_0
  10
377.86896
  20
215.09784
  0
VERTEX
  5
3fd
  8
Layer_0
  10
378.54767
  20
215.09784
  0
VERTEX
  5
3fe
  8
Layer_0
  10
378.54767
  20
211.50995
  0
SEQEND
  0
POLYLINE
  5
400
  8
Layer_0
  62
5
  66
1
  10
0
  20
0
  30
0
  0
VERTEX
  5
400
  8
Layer_0
  10
382.59113
  20
214.54657
  0
VERTEX
  5
401
  8
Layer_0
  10
382.01544
  20
214.54657
  0
VERTEX
  5
402
  8
Layer_0
  10
382.01544
  20
211.4621
  0
VERTEX
  5
403
  8
Layer_0
  10
382.59113
  20
211.4621
  0
VERTEX
  5
404
  8
Layer_0
  10
382.59113
  20
210.9101
  0
VERTEX
  5
405
  8
Layer_0
  10
380.76666
  20
210.9101
  0
VERTEX
  5
406
  8
Layer_0
  10
380.76666
  20
211.4621
  0
VERTEX
  5
407
  8
Layer_0
  10
381.33673
  20
211.4621
  0
VERTEX
  5
408
  8
Layer_0
  10
381.33673
  20
214.54657
  0
VERTEX
  5
409
  8
Layer_0
  10
380.76666
  20
214.54657
  0
VERTEX
  5
40a
  8
Layer_0
  10
380.76666
  20
215.09784
  0
VERTEX
  5
40b
  8
Layer_0
  10
382.59113
  20
215.09784
  0
VERTEX
  5
40c
  8
Layer_0
  10
382.59113
  20
214.54657
  0
SEQEND
  0
POLYLINE
  5
40e
  8
Layer_0
  62
5
  66
1
  10
0
  20
0
  30
0
  0
VERTEX
  5
40e
  8
Layer_0
  10
388.35016
  20
213.33441
  0
VERTEX
  5
40f
  8
Layer_0
  10
390.24591
  20
213.33441
  0
VERTEX
  5
410
  8
Layer_0
  10
390.24591
  20
215.09784
  0
VERTEX
  5
411
  8
Layer_0
  10
390.92365
  20
215.09784
  0
VERTEX
  5
412
  8
Layer_0
  10
390.92365
  20
210.9101
  0
VERTEX
  5
413
  8
Layer_0
  10
390.24591
  20
210.9101
  0
VERTEX
  5
414
  8
Layer_0
  10
390.24591
  20
212.73431
  0
VERTEX
  5
415
  8
Layer_0
  10
388.35016
  20
212.73431
  0
VERTEX
  5
416
  8
Layer_0
  10
388.35016
  20
210.9101
  0
VERTEX
  5
417
  8
Layer_0
  10
387.67145
  20
210.9101
  0
VERTEX
  5
418
  8
Layer_0
  10
387.67145
  20
215.09784
  0
VERTEX
  5
419
  8
Layer_0
  10
388.35016
  20
215.09784
  0
VERTEX
  5
41a
  8
Layer_0
  10
388.35016
  20
213.33441
  0
SEQEND
  0
POLYLINE
  5
41c
  8
Layer_0
  62
5
  70
1
  66
1
  10
0
  20
0
  30
0
  0
VERTEX
  5
41c
  8
Layer_0
  10
394.75714
  20
214.49774
  0
VERTEX
  5
41d
  8
Layer_0
  10
393.50934
  20
214.49774
  0
VERTEX
  5
41e
  8
Layer_0
  10
393.50934
  20
210.9101
  0
VERTEX
  5
41f
  8
Layer_0
  10
392.83136
  20
210.9101
  0
VERTEX
  5
420
  8
Layer_0
  10
392.83136
  20
214.49774
  0
VERTEX
  5
421
  8
Layer_0
  10
391.58356
  20
214.49774
  0
VERTEX
  5
422
  8
Layer_0
  10
391.58356
  20
215.09784
  0
VERTEX
  5
423
  8
Layer_0
  10
394.75714
  20
215.09784
  0
SEQEND
  0
CIRCLE
  5
425
  8
Layer_1
  62
1
  10
197.99899
  20
202.33701
  30
0
  40
6.5
  0
CIRCLE
  5
425
  8
Layer_1
  62
1
  10
197.99899
  20
174.33701
  30
0
  40
6.5
  0
CIRCLE
  5
425
  8
Layer_1
  62
1
  10
197.99899
  20
230.33701
  30
0
  40
6.5
  0
POLYLINE
  5
425
  8
Layer_0
  62
5
  66
1
  10
0
  20
0
  30
0
  0
VERTEX
  5
425
  8
Layer_0
  10
197.13199
  20
158.84711
  42
0.1604784
  0
VERTEX
  5
426
  8
Layer_0
  10
197.33633
  20
158.0412
  42
0.24071036
  0
VERTEX
  5
427
  8
Layer_0
  10
198.03189
  20
157.77094
  42
0.2408484
  0
VERTEX
  5
428
  8
Layer_0
  10
198.72818
  20
158.0412
  42
0.15990594
  0
VERTEX
  5
429
  8
Layer_0
  10
198.93204
  20
158.84711
  0
VERTEX
  5
42a
  8
Layer_0
  10
198.93204
  20
161.43085
  0
VERTEX
  5
42b
  8
Layer_0
  10
199.59854
  20
161.43085
  0
VERTEX
  5
42c
  8
Layer_0
  10
199.59854
  20
158.95966
  42
-0.14394081
  0
VERTEX
  5
42d
  8
Layer_0
  10
199.33121
  20
157.72308
  42
-0.22276446
  0
VERTEX
  5
42e
  8
Layer_0
  10
198.43033
  20
157.19794
  42
-0.17547417
  0
VERTEX
  5
42f
  8
Layer_0
  10
197.03409
  20
157.41498
  42
-0.20965108
  0
VERTEX
  5
430
  8
Layer_0
  10
196.51358
  20
158.3371
  42
-0.041335441
  0
VERTEX
  5
431
  8
Layer_0
  10
196.46646
  20
158.95966
  0
VERTEX
  5
432
  8
Layer_0
  10
196.46646
  20
161.43085
  0
VERTEX
  5
433
  8
Layer_0
  10
197.13199
  20
161.43085
  0
VERTEX
  5
434
  8
Layer_0
  10
197.13199
  20
158.84711
  0
SEQEND
  0
POLYLINE
  5
436
  8
Layer_0
  62
5
  66
1
  10
0
  20
0
  30
0
  0
VERTEX
  5
436
  8
Layer_0
  10
195.95084
  20
157.2431
  0
VERTEX
  5
437
  8
Layer_0
  10
195.24283
  20
157.2431
  0
VERTEX
  5
438
  8
Layer_0
  10
194.86514
  20
158.37738
  0
VERTEX
  5
439
  8
Layer_0
  10
193.29849
  20
158.37738
  0
VERTEX
  5
43a
  8
Layer_0
  10
192.93301
  20
157.2431
  0
VERTEX
  5
43b
  8
Layer_0
  10
192.24283
  20
157.2431
  0
VERTEX
  5
43c
  8
Layer_0
  10
193.67081
  20
161.43085
  0
VERTEX
  5
43d
  8
Layer_0
  10
194.52286
  20
161.43085
  0
VERTEX
  5
43e
  8
Layer_0
  10
195.95084
  20
157.2431
  0
SEQEND
  0
POLYLINE
  5
440
  8
Layer_0
  62
5
  66
1
  10
0
  20
0
  30
0
  0
VERTEX
  5
440
  8
Layer_0
  10
202.01627
  20
159.87079
  0
VERTEX
  5
441
  8
Layer_0
  10
202.02774
  20
159.87079
  0
VERTEX
  5
442
  8
Layer_0
  10
202.99429
  20
161.43085
  0
VERTEX
  5
443
  8
Layer_0
  10
203.74429
  20
161.43085
  0
VERTEX
  5
444
  8
Layer_0
  10
202.42422
  20
159.39081
  0
VERTEX
  5
445
  8
Layer_0
  10
203.79752
  20
157.2431
  0
VERTEX
  5
446
  8
Layer_0
  10
202.99991
  20
157.2431
  0
VERTEX
  5
447
  8
Layer_0
  10
201.98648
  20
158.91083
  0
VERTEX
  5
448
  8
Layer_0
  10
201.96768
  20
158.91083
  0
VERTEX
  5
449
  8
Layer_0
  10
200.96548
  20
157.2431
  0
VERTEX
  5
44a
  8
Layer_0
  10
200.21548
  20
157.2431
  0
VERTEX
  5
44b
  8
Layer_0
  10
201.57193
  20
159.38519
  0
VERTEX
  5
44c
  8
Layer_0
  10
200.26407
  20
161.43085
  0
VERTEX
  5
44d
  8
Layer_0
  10
201.06192
  20
161.43085
  0
VERTEX
  5
44e
  8
Layer_0
  10
202.01627
  20
159.87079
  0
SEQEND
  0
POLYLINE
  5
450
  8
Layer_0
  62
5
  70
1
  66
1
  10
0
  20
0
  30
0
  0
VERTEX
  5
450
  8
Layer_0
  10
194.06729
  20
160.80731
  0
VERTEX
  5
451
  8
Layer_0
  10
193.46085
  20
158.95966
  0
VERTEX
  5
452
  8
Layer_0
  10
194.69742
  20
158.95966
  0
VERTEX
  5
453
  8
Layer_0
  10
194.09732
  20
160.80731
  0
SEQEND
  0
POLYLINE
  5
455
  8
Layer_0
  62
5
  66
1
  10
0
  20
0
  30
0
  0
VERTEX
  5
455
  8
Layer_0
  10
196.98634
  20
190.49275
  42
-0.21322091
  0
VERTEX
  5
456
  8
Layer_0
  10
198.1736
  20
189.86092
  0
VERTEX
  5
457
  8
Layer_0
  10
197.69923
  20
189.44075
  0
VERTEX
  5
458
  8
Layer_0
  10
197.61354
  20
189.5406
  42
0.33592884
  0
VERTEX
  5
459
  8
Layer_0
  10
196.1631
  20
189.75911
  42
0.33616918
  0
VERTEX
  5
45a
  8
Layer_0
  10
196.00539
  20
189.10896
  42
0.22695907
  0
VERTEX
  5
45b
  8
Layer_0
  10
196.47145
  20
188.78792
  42
0.010911871
  0
VERTEX
  5
45c
  8
Layer_0
  10
197.00368
  20
188.67293
  0
VERTEX
  5
45d
  8
Layer_0
  10
197.29738
  20
188.60262
  42
-0.18304665
  0
VERTEX
  5
45e
  8
Layer_0
  10
198.05128
  20
188.10774
  42
-0.38092694
  0
VERTEX
  5
45f
  8
Layer_0
  10
197.71339
  20
186.44759
  42
-0.19773524
  0
VERTEX
  5
460
  8
Layer_0
  10
196.209
  20
186.21883
  42
-0.16922152
  0
VERTEX
  5
461
  8
Layer_0
  10
195.16701
  20
186.87874
  0
VERTEX
  5
462
  8
Layer_0
  10
195.63478
  20
187.31746
  0
VERTEX
  5
463
  8
Layer_0
  10
195.74879
  20
187.19051
  42
0.31473833
  0
VERTEX
  5
464
  8
Layer_0
  10
197.22462
  20
186.87215
  42
0.36408256
  0
VERTEX
  5
465
  8
Layer_0
  10
197.50758
  20
187.65755
  42
0.24847118
  0
VERTEX
  5
466
  8
Layer_0
  10
197.05812
  20
188.00252
  42
0.029416679
  0
VERTEX
  5
467
  8
Layer_0
  10
196.51711
  20
188.10945
  0
VERTEX
  5
468
  8
Layer_0
  10
196.23
  20
188.17732
  42
-0.17527026
  0
VERTEX
  5
469
  8
Layer_0
  10
195.46486
  20
188.66878
  42
-0.33696666
  0
VERTEX
  5
46a
  8
Layer_0
  10
195.60255
  20
190.10139
  42
-0.16586631
  0
VERTEX
  5
46b
  8
Layer_0
  10
196.43776
  20
190.48201
  42
-0.055233088
  0
VERTEX
  5
46c
  8
Layer_0
  10
196.98634
  20
190.49275
  0
SEQEND
  0
POLYLINE
  5
46e
  8
Layer_0
  62
5
  66
1
  10
0
  20
0
  30
0
  0
VERTEX
  5
46e
  8
Layer_0
  10
193.36794
  20
189.83089
  0
VERTEX
  5
46f
  8
Layer_0
  10
192.12013
  20
189.83089
  0
VERTEX
  5
470
  8
Layer_0
  10
192.12013
  20
186.243
  0
VERTEX
  5
471
  8
Layer_0
  10
191.4424
  20
186.243
  0
VERTEX
  5
472
  8
Layer_0
  10
191.4424
  20
189.83089
  0
VERTEX
  5
473
  8
Layer_0
  10
190.1946
  20
189.83089
  0
VERTEX
  5
474
  8
Layer_0
  10
190.1946
  20
190.43074
  0
VERTEX
  5
475
  8
Layer_0
  10
193.36794
  20
190.43074
  0
VERTEX
  5
476
  8
Layer_0
  10
193.36794
  20
189.83089
  0
SEQEND
  0
POLYLINE
  5
478
  8
Layer_0
  62
5
  66
1
  10
0
  20
0
  30
0
  0
VERTEX
  5
478
  8
Layer_0
  10
201.71266
  20
189.83089
  0
VERTEX
  5
479
  8
Layer_0
  10
199.70924
  20
189.83089
  0
VERTEX
  5
47a
  8
Layer_0
  10
199.70924
  20
188.66731
  0
VERTEX
  5
47b
  8
Layer_0
  10
201.52711
  20
188.66731
  0
VERTEX
  5
47c
  8
Layer_0
  10
201.52711
  20
188.06746
  0
VERTEX
  5
47d
  8
Layer_0
  10
199.70924
  20
188.06746
  0
VERTEX
  5
47e
  8
Layer_0
  10
199.70924
  20
186.84309
  0
VERTEX
  5
47f
  8
Layer_0
  10
201.71266
  20
186.84309
  0
VERTEX
  5
480
  8
Layer_0
  10
201.71266
  20
186.243
  0
VERTEX
  5
481
  8
Layer_0
  10
199.03053
  20
186.243
  0
VERTEX
  5
482
  8
Layer_0
  10
199.03053
  20
190.43074
  0
VERTEX
  5
483
  8
Layer_0
  10
201.71266
  20
190.43074
  0
VERTEX
  5
484
  8
Layer_0
  10
201.71266
  20
189.83089
  0
SEQEND
  0
POLYLINE
  5
486
  8
Layer_0
  62
5
  70
1
  66
1
  10
0
  20
0
  30
0
  0
VERTEX
  5
486
  8
Layer_0
  10
205.3904
  20
189.83089
  0
VERTEX
  5
487
  8
Layer_0
  10
204.14259
  20
189.83089
  0
VERTEX
  5
488
  8
Layer_0
  10
204.14259
  20
186.243
  0
VERTEX
  5
489
  8
Layer_0
  10
203.46486
  20
186.243
  0
VERTEX
  5
48a
  8
Layer_0
  10
203.46486
  20
189.83089
  0
VERTEX
  5
48b
  8
Layer_0
  10
202.21706
  20
189.83089
  0
VERTEX
  5
48c
  8
Layer_0
  10
202.21706
  20
190.43074
  0
VERTEX
  5
48d
  8
Layer_0
  10
205.3904
  20
190.43074
  0
SEQEND
  0
POLYLINE
  5
48f
  8
Layer_0
  62
5
  66
1
  10
0
  20
0
  30
0
  0
VERTEX
  5
48f
  8
Layer_0
  10
199.14676
  20
217.49808
  42
-0.32056457
  0
VERTEX
  5
490
  8
Layer_0
  10
200.6243
  20
216.2742
  42
-0.1835242
  0
VERTEX
  5
491
  8
Layer_0
  10
200.46829
  20
214.03568
  42
-0.31168288
  0
VERTEX
  5
492
  8
Layer_0
  10
198.74783
  20
213.18362
  42
-0.32079241
  0
VERTEX
  5
493
  8
Layer_0
  10
197.26981
  20
214.40799
  42
-0.18363356
  0
VERTEX
  5
494
  8
Layer_0
  10
197.42581
  20
216.64603
  42
-0.3119981
  0
VERTEX
  5
495
  8
Layer_0
  10
199.14676
  20
217.49808
  0
SEQEND
  0
POLYLINE
  5
497
  8
Layer_0
  62
5
  66
1
  10
0
  20
0
  30
0
  0
VERTEX
  5
497
  8
Layer_0
  10
191.77127
  20
217.41336
  0
VERTEX
  5
498
  8
Layer_0
  10
192.01273
  20
217.3494
  42
-0.27549349
  0
VERTEX
  5
499
  8
Layer_0
  10
192.6951
  20
216.44852
  42
-0.168461
  0
VERTEX
  5
49a
  8
Layer_0
  10
192.53592
  20
215.44266
  42
-0.27639562
  0
VERTEX
  5
49b
  8
Layer_0
  10
191.4971
  20
214.91483
  0
VERTEX
  5
49c
  8
Layer_0
  10
190.37503
  20
214.91483
  0
VERTEX
  5
49d
  8
Layer_0
  10
190.37503
  20
213.2471
  0
VERTEX
  5
49e
  8
Layer_0
  10
189.69632
  20
213.2471
  0
VERTEX
  5
49f
  8
Layer_0
  10
189.69632
  20
217.43484
  0
VERTEX
  5
4a0
  8
Layer_0
  10
191.4971
  20
217.43484
  0
VERTEX
  5
4a1
  8
Layer_0
  10
191.77127
  20
217.41336
  0
SEQEND
  0
POLYLINE
  5
4a3
  8
Layer_0
  62
5
  66
1
  10
0
  20
0
  30
0
  0
VERTEX
  5
4a3
  8
Layer_0
  10
195.53128
  20
217.4136
  0
VERTEX
  5
4a4
  8
Layer_0
  10
195.76834
  20
217.35013
  42
-0.27551531
  0
VERTEX
  5
4a5
  8
Layer_0
  10
196.45609
  20
216.45071
  42
-0.19337735
  0
VERTEX
  5
4a6
  8
Layer_0
  10
196.26907
  20
215.42801
  42
-0.17293705
  0
VERTEX
  5
4a7
  8
Layer_0
  10
195.6597
  20
215.01126
  0
VERTEX
  5
4a8
  8
Layer_0
  10
196.56619
  20
213.2471
  0
VERTEX
  5
4a9
  8
Layer_0
  10
195.8096
  20
213.2471
  0
VERTEX
  5
4aa
  8
Layer_0
  10
194.96976
  20
214.93924
  0
VERTEX
  5
4ab
  8
Layer_0
  10
194.13626
  20
214.93924
  0
VERTEX
  5
4ac
  8
Layer_0
  10
194.13626
  20
213.2471
  0
VERTEX
  5
4ad
  8
Layer_0
  10
193.45755
  20
213.2471
  0
VERTEX
  5
4ae
  8
Layer_0
  10
193.45755
  20
217.43484
  0
VERTEX
  5
4af
  8
Layer_0
  10
195.26395
  20
217.43484
  0
VERTEX
  5
4b0
  8
Layer_0
  10
195.53128
  20
217.4136
  0
SEQEND
  0
POLYLINE
  5
4b2
  8
Layer_0
  62
5
  66
1
  10
0
  20
0
  30
0
  0
VERTEX
  5
4b2
  8
Layer_0
  10
203.69925
  20
217.41653
  42
-0.39572221
  0
VERTEX
  5
4b3
  8
Layer_0
  10
204.56863
  20
216.35477
  42
-0.25888699
  0
VERTEX
  5
4b4
  8
Layer_0
  10
204.22488
  20
215.59476
  42
-0.11436314
  0
VERTEX
  5
4b5
  8
Layer_0
  10
203.84207
  20
215.46707
  0
VERTEX
  5
4b6
  8
Layer_0
  10
203.84207
  20
215.43143
  0
VERTEX
  5
4b7
  8
Layer_0
  10
203.97537
  20
215.41287
  42
-0.36931918
  0
VERTEX
  5
4b8
  8
Layer_0
  10
204.71878
  20
214.45267
  42
-0.29394876
  0
VERTEX
  5
4b9
  8
Layer_0
  10
204.07034
  20
213.33987
  42
-0.11128444
  0
VERTEX
  5
4ba
  8
Layer_0
  10
203.6387
  20
213.2471
  0
VERTEX
  5
4bb
  8
Layer_0
  10
201.59769
  20
213.2471
  0
VERTEX
  5
4bc
  8
Layer_0
  10
201.59769
  20
217.43484
  0
VERTEX
  5
4bd
  8
Layer_0
  10
203.45218
  20
217.43484
  0
VERTEX
  5
4be
  8
Layer_0
  10
203.69925
  20
217.41653
  0
SEQEND
  0
POLYLINE
  5
4c0
  8
Layer_0
  62
5
  66
1
  10
0
  20
0
  30
0
  0
VERTEX
  5
4c0
  8
Layer_0
  10
208.23343
  20
216.83475
  0
VERTEX
  5
4c1
  8
Layer_0
  10
206.23001
  20
216.83475
  0
VERTEX
  5
4c2
  8
Layer_0
  10
206.23001
  20
215.67142
  0
VERTEX
  5
4c3
  8
Layer_0
  10
208.04788
  20
215.67142
  0
VERTEX
  5
4c4
  8
Layer_0
  10
208.04788
  20
215.07132
  0
VERTEX
  5
4c5
  8
Layer_0
  10
206.23001
  20
215.07132
  0
VERTEX
  5
4c6
  8
Layer_0
  10
206.23001
  20
213.84695
  0
VERTEX
  5
4c7
  8
Layer_0
  10
208.23343
  20
213.84695
  0
VERTEX
  5
4c8
  8
Layer_0
  10
208.23343
  20
213.2471
  0
VERTEX
  5
4c9
  8
Layer_0
  10
205.5513
  20
213.2471
  0
VERTEX
  5
4ca
  8
Layer_0
  10
205.5513
  20
217.43484
  0
VERTEX
  5
4cb
  8
Layer_0
  10
208.23343
  20
217.43484
  0
VERTEX
  5
4cc
  8
Layer_0
  10
208.23343
  20
216.83475
  0
SEQEND
  0
POLYLINE
  5
4ce
  8
Layer_0
  62
5
  66
1
  10
0
  20
0
  30
0
  0
VERTEX
  5
4ce
  8
Layer_0
  10
198.71317
  20
216.88602
  0
VERTEX
  5
4cf
  8
Layer_0
  10
198.5032
  20
216.82254
  42
0.22239364
  0
VERTEX
  5
4d0
  8
Layer_0
  10
197.94485
  20
216.19022
  42
0.082811831
  0
VERTEX
  5
4d1
  8
Layer_0
  10
197.86649
  20
215.67239
  42
0.035637892
  0
VERTEX
  5
4d2
  8
Layer_0
  10
197.88602
  20
214.73587
  42
0.24017265
  0
VERTEX
  5
4d3
  8
Layer_0
  10
198.40775
  20
213.90604
  42
0.30710865
  0
VERTEX
  5
4d4
  8
Layer_0
  10
199.65555
  20
214.02811
  42
0.21146922
  0
VERTEX
  5
4d5
  8
Layer_0
  10
200.02737
  20
215.00955
  42
0.035637756
  0
VERTEX
  5
4d6
  8
Layer_0
  10
200.00784
  20
215.94608
  42
0.24246146
  0
VERTEX
  5
4d7
  8
Layer_0
  10
199.48465
  20
216.77567
  42
0.1736426
  0
VERTEX
  5
4d8
  8
Layer_0
  10
198.71317
  20
216.88602
  0
SEQEND
  0
POLYLINE
  5
4da
  8
Layer_0
  62
5
  66
1
  10
0
  20
0
  30
0
  0
VERTEX
  5
4da
  8
Layer_0
  10
202.27664
  20
215.10135
  0
VERTEX
  5
4db
  8
Layer_0
  10
202.27664
  20
213.82913
  0
VERTEX
  5
4dc
  8
Layer_0
  10
203.43997
  20
213.82913
  42
0.40302648
  0
VERTEX
  5
4dd
  8
Layer_0
  10
203.9949
  20
214.24124
  42
0.09832153
  0
VERTEX
  5
4de
  8
Layer_0
  10
203.96683
  20
214.79495
  42
0.32774723
  0
VERTEX
  5
4df
  8
Layer_0
  10
203.43997
  20
215.10135
  0
VERTEX
  5
4e0
  8
Layer_0
  10
202.27664
  20
215.10135
  0
SEQEND
  0
POLYLINE
  5
4e2
  8
Layer_0
  62
5
  66
1
  10
0
  20
0
  30
0
  0
VERTEX
  5
4e2
  8
Layer_0
  10
194.13626
  20
216.83475
  0
VERTEX
  5
4e3
  8
Layer_0
  10
194.13626
  20
215.50931
  0
VERTEX
  5
4e4
  8
Layer_0
  10
195.21609
  20
215.50931
  42
0.4053364
  0
VERTEX
  5
4e5
  8
Layer_0
  10
195.75296
  20
215.91068
  42
0.092688367
  0
VERTEX
  5
4e6
  8
Layer_0
  10
195.72586
  20
216.53738
  42
0.33025586
  0
VERTEX
  5
4e7
  8
Layer_0
  10
195.21609
  20
216.83475
  0
VERTEX
  5
4e8
  8
Layer_0
  10
194.13626
  20
216.83475
  0
SEQEND
  0
POLYLINE
  5
4ea
  8
Layer_0
  62
5
  66
1
  10
0
  20
0
  30
0
  0
VERTEX
  5
4ea
  8
Layer_0
  10
190.37503
  20
216.83475
  0
VERTEX
  5
4eb
  8
Layer_0
  10
190.37503
  20
215.51492
  0
VERTEX
  5
4ec
  8
Layer_0
  10
191.45486
  20
215.51492
  42
0.40543067
  0
VERTEX
  5
4ed
  8
Layer_0
  10
191.99149
  20
215.91483
  42
0.093524686
  0
VERTEX
  5
4ee
  8
Layer_0
  10
191.96463
  20
216.5386
  42
0.32941378
  0
VERTEX
  5
4ef
  8
Layer_0
  10
191.45486
  20
216.83475
  0
VERTEX
  5
4f0
  8
Layer_0
  10
190.37503
  20
216.83475
  0
SEQEND
  0
POLYLINE
  5
4f2
  8
Layer_0
  62
5
  70
1
  66
1
  10
0
  20
0
  30
0
  0
VERTEX
  5
4f2
  8
Layer_0
  10
202.27664
  20
216.85355
  0
VERTEX
  5
4f3
  8
Layer_0
  10
202.27664
  20
215.66483
  0
VERTEX
  5
4f4
  8
Layer_0
  10
203.32645
  20
215.66483
  42
0.40746674
  0
VERTEX
  5
4f5
  8
Layer_0
  10
203.84573
  20
216.05057
  42
0.096367246
  0
VERTEX
  5
4f6
  8
Layer_0
  10
203.81985
  20
216.56717
  42
0.33189151
  0
VERTEX
  5
4f7
  8
Layer_0
  10
203.32645
  20
216.85355
  0
SEQEND
  0
ENDSEC
  0
EOF
